<svg xmlns="http://www.w3.org/2000/svg" width="300" height="400"><style>.s0{fill:#5382A1;}.s1{fill:#E76F00;}</style><path fill="#5382A1" d="M102.7 291.3s-14.2 8.2 10 11c29.5 3.4 44.5 3 77-3.3 0 0 8.4 5.3 20.3 10-72.6 31.2-164.4-1.7-107.3-17.7m-9-40.6S78 262.5 102.3 265c31.4 3.2 56.2 3.5 99-4.8 0 0 6 6 15.4 9.3C129 295.2 31 271.5 94 250.7"/><path fill="#E76F00" d="M168.6 181.8c18 20.6-4.7 39-4.7 39s45-23.4 24-52.7c-19-27-34-41 47-87 0 0-127 31.7-66.8 101.6"/><path fill="#5382A1" d="M264.7 321.4s10.5 8.6-11.6 15.3c-41 12.7-174 16.5-211 .5-13-5.8 12-13.8 20-15.4 8-1.8 12.8-1.4 12.8-1.4-14.6-10.4-95 20.4-41 29.2 148.3 24 270-11 231.8-28.2m-156-112.8s-67.3 16-24 21.8c18.6 2.5 55 2 89.4-1 28-2.4 56-7.4 56-7.4s-10 4.2-17 9c-69 18-201 9.7-163-8.7 32-15.4 58.3-13.7 58.3-13.7m121 67.6c69.6-36.2 37.4-71 15-66.2-5.5 1-8 2-8 2s2-3 6-4.5c44.3-15.6 78.5 46-14.4 70.5l2-1.8"/><path fill="#E76F00" d="M188.5 4.4S227 43 152 102.4c-60.4 47.4-14 74.6 0 105.6-35.3-31.7-61-59.6-43.8-85.6 25.5-38.2 95.8-56.7 80.3-118"/><path fill="#5382A1" d="M116.3 374.2c66.8 4.3 169.4-2.4 171.8-34 0 0-4 12-55 21.5-57 10.7-127 9.5-169 2.6 0 0 9 7 53 10"/></svg>