<svg xmlns="http://www.w3.org/2000/svg" width="432.07" height="445.38" viewBox="0 0 432.07 445.38" xml:space="preserve"><g id="orginal" stroke="#000"/><g id="Layer_x0020_3" style="fill:none;stroke-linecap:round;stroke-linejoin:round;stroke-width:12.47;stroke:#FFF"><path d="M323.21 324.23c2.83-23.6 1.98-27.06 19.56-23.24l4.46 0.39c13.52 0.62 31.2-2.17 41.59-7 22.36-10.38 35.62-27.7 13.57-23.15 -50.3 10.38-53.75-6.65-53.75-6.65 53.11-78.8 75.31-178.84 56.15-203.32C352.51-5.53 262.04 26.05 260.52 26.87l-0.48 0.09c-9.94-2.06-21.06-3.29-33.55-3.5 -22.76-0.37-40.03 5.97-53.13 15.9 0 0-161.41-66.5-153.9 83.63 1.6 31.94 45.78 241.66 98.47 178.31 19.26-23.16 37.87-42.75 37.87-42.75 9.24 6.14 20.31 9.27 31.91 8.15l0.9-0.76c-0.28 2.88-0.16 5.69 0.36 9.02 -13.57 15.17-9.58 17.83-36.72 23.42 -27.46 5.66-11.33 15.73-0.8 18.37 12.77 3.19 42.31 7.72 62.27-20.22l-0.79 3.19c5.33 4.26 4.97 30.62 5.72 49.45 0.76 18.83 2.02 36.41 5.86 46.77 3.84 10.36 8.37 37.05 44.04 29.41 29.81-6.39 52.6-15.58 54.68-101.11" style="fill:#000;stroke-width:37.4;stroke:#000"/><path d="M402.4 271.23c-50.3 10.38-53.76-6.65-53.76-6.65 53.11-78.81 75.31-178.84 56.15-203.33 -52.27-66.78-142.75-35.2-144.26-34.38l-0.49 0.09c-9.94-2.06-21.06-3.29-33.56-3.5 -22.76-0.37-40.03 5.97-53.13 15.9 0 0-161.41-66.49-153.9 83.63 1.6 31.94 45.78 241.66 98.47 178.31 19.26-23.16 37.87-42.75 37.87-42.75 9.24 6.14 20.31 9.27 31.91 8.15l0.9-0.76c-0.28 2.88-0.15 5.69 0.36 9.02 -13.57 15.17-9.59 17.83-36.72 23.42 -27.46 5.66-11.33 15.73-0.8 18.37 12.77 3.19 42.31 7.72 62.27-20.22l-0.8 3.19c5.32 4.26 9.05 27.71 8.43 48.97 -0.63 21.26-1.04 35.85 3.15 47.25 4.19 11.4 8.37 37.05 44.04 29.41 29.81-6.39 45.26-22.94 47.41-50.55 1.53-19.63 4.98-16.73 5.19-34.28l2.77-8.31c3.19-26.61 0.51-35.2 18.87-31.2l4.46 0.39c13.52 0.62 31.21-2.17 41.59-7 22.36-10.38 35.62-27.7 13.57-23.15z" fill="#336791"/><path d="M215.87 286.48c-1.38 49.52 0.35 99.38 5.19 111.5 4.85 12.12 15.22 35.69 50.9 28.05 29.81-6.39 40.65-18.76 45.36-46.05 3.47-20.08 10.15-75.85 11.01-87.28M173.1 38.26c0 0-161.52-66.02-154.01 84.11 1.6 31.94 45.78 241.66 98.47 178.32 19.26-23.17 36.67-41.33 36.67-41.33M260.35 26.21c-5.59 1.75 89.85-34.89 144.09 34.42 19.16 24.48-3.04 124.52-56.15 203.33"/><path d="M348.28 263.95c0 0 3.46 17.04 53.76 6.65 22.04-4.55 8.78 12.77-13.58 23.16 -18.34 8.51-59.47 10.7-60.15-1.07 -1.73-30.35 21.65-21.13 19.96-28.74 -1.52-6.85-11.98-13.57-18.89-30.34 -6.04-14.63-82.8-126.85 21.29-110.18 3.81-0.79-27.15-99-124.55-100.6 -97.38-1.6-94.19 119.76-94.19 119.76" stroke-linejoin="bevel"/><path d="M188.6 274.33c-13.58 15.17-9.58 17.83-36.72 23.42 -27.46 5.66-11.33 15.73-0.8 18.36 12.77 3.2 42.31 7.72 62.27-20.23 6.08-8.51-0.04-22.09-8.38-25.55 -4.03-1.67-9.43-3.76-16.36 3.99zM187.72 274.07c-1.37-8.92 2.93-19.53 7.54-31.94 6.92-18.63 22.89-37.26 10.12-96.34 -9.52-44.03-73.4-9.16-73.44-3.19 -0.04 5.97 2.89 30.26-1.07 58.55 -5.16 36.91 23.49 68.13 56.48 64.94"/><path d="M172.52 141.7c-0.29 2.04 3.73 7.48 8.98 8.21 5.23 0.73 9.71-3.52 10-5.56 0.28-2.04-3.73-4.28-8.98-5.01 -5.24-0.73-9.72 0.33-10 2.37z" style="fill:#FFF;stroke-width:4.16"/><path d="M331.94 137.54c0.28 2.04-3.73 7.48-8.98 8.21 -5.24 0.73-9.72-3.52-10.01-5.56 -0.28-2.04 3.74-4.28 8.98-5.01 5.24-0.73 9.72 0.33 10 2.37z" style="fill:#FFF;stroke-width:2.08"/><path d="M350.68 123.43c0.86 15.99-3.44 26.89-3.99 43.91 -0.8 24.75 11.8 53.07-7.19 81.44"/><path d="M0 60.23" stroke-width="3"/></g></svg>