<svg xmlns:svg="http://www.w3.org/2000/svg" xmlns="http://www.w3.org/2000/svg" xmlns:xlink="http://www.w3.org/1999/xlink" version="1.0" width="88.929085pt" height="89.911201pt" id="svg2"><metadata id="metadata2193"/><defs id="defs4"><linearGradient id="linearGradient4671"><stop offset="0" id="stop4673" style="stop-color:#ffd43b;stop-opacity:1"/><stop offset="1" id="stop4675" style="stop-color:#ffe873;stop-opacity:1"/></linearGradient><linearGradient id="linearGradient4689"><stop offset="0" id="stop4691" style="stop-color:#5a9fd4;stop-opacity:1"/><stop offset="1" id="stop4693" style="stop-color:#306998;stop-opacity:1"/></linearGradient><linearGradient x1="150.96111" y1="192.35176" x2="112.03144" y2="137.27299" id="linearGradient1475" xlink:href="#linearGradient4671" gradientUnits="userSpaceOnUse" gradientTransform="matrix(0.562541,0,0,0.567972,-9.399749,-5.305317)"/><linearGradient x1="26.648937" y1="20.603781" x2="135.66525" y2="114.39767" id="linearGradient1478" xlink:href="#linearGradient4689" gradientUnits="userSpaceOnUse" gradientTransform="matrix(0.562541,0,0,0.567972,-9.399749,-5.305317)"/></defs><g id="g2303" transform="translate(-5.5913706,-6.3970536)"><path id="path1948" d="m60.510156 6.3979729c-4.583653 0.021298-8.960939 0.4122177-12.8125 1.09375C36.35144 9.4962267 34.291407 13.691825 34.291406 21.429223l0 10.21875 26.8125 0 0 3.40625-26.8125 0-10.0625 0c-7.792459 0-14.6157592 4.683717-16.7500002 13.59375-2.46182 10.212966-2.5710151 16.586023 0 27.25 1.9059283 7.937852 6.4575432 13.593748 14.2500002 13.59375l9.21875 0 0-12.25c0-8.849902 7.657144-16.656248 16.75-16.65625l26.78125 0c7.454951 0 13.406253-6.138164 13.40625-13.625l0-25.53125c0-7.266339-6.12998-12.7247775-13.40625-13.9375001-4.605987-0.7667253-9.385097-1.1150483-13.96875-1.09375zm-14.5 8.2187501c2.769547 0 5.03125 2.298646 5.03125 5.125-0.000002 2.816336-2.261703 5.09375-5.03125 5.09375-2.779476-0.000001-5.03125-2.277415-5.03125-5.09375-0.000001-2.826353 2.251774-5.125 5.03125-5.125z" fill="url(#linearGradient1478)"/><path id="path1950" d="m91.228906 35.054223 0 11.90625c0 9.230755-7.825895 16.999999-16.75 17l-26.78125 0c-7.335833 0-13.406249 6.278483-13.40625 13.625l0 25.531247c0 7.26634 6.318588 11.54032 13.40625 13.625 8.487331 2.49561 16.626237 2.94663 26.78125 0 6.750155-1.95439 13.406253-5.88761 13.40625-13.625l0-10.218747-26.78125 0 0-3.40625 26.78125 0 13.406254 0c7.79246 0 10.69625-5.435408 13.40624-13.59375 2.79933-8.398886 2.68022-16.475776 0-27.25-1.92578-7.757441-5.60387-13.59375-13.40624-13.59375l-10.062504 0zm-15.0625 64.65625c2.779478 0.000003 5.03125 2.277417 5.03125 5.093747-0.000002 2.82635-2.251775 5.125-5.03125 5.125-2.76955 0-5.03125-2.29865-5.03125-5.125 0.000002-2.81633 2.261697-5.093747 5.03125-5.093747z" fill="url(#linearGradient1475)"/></g></svg>