<svg xmlns="http://www.w3.org/2000/svg" width="432.1" height="445.4"><g fill="none" stroke="#FFF" stroke-width="12.5" stroke-linecap="round" stroke-linejoin="round"><path fill="#000" stroke="#000" stroke-width="37.4" d="M323.2 324.2c2.8-23.6 2-27 19.6-23.2l4.4.4c13.5.6 31.2-2.2 41.6-7 22.4-10.4 35.6-27.7 13.6-23.2-50.3 10.4-53.8-6.6-53.8-6.6 53-78.8 75.3-179 56.2-203.3C352.5-5.5 262 26 260.5 27h-.5c-10-2-21-3.3-33.5-3.5-22.8-.4-40 6-53 16 0 0-161.6-66.6-154 83.5C21 155 65.2 364.7 118 301.3c19.2-23.2 37.8-42.8 37.8-42.8 9.2 6.2 20.3 9.3 32 8.2l.8-.8c-.3 2-.2 5 .4 9-13.6 15-9.6 17-36.8 23-27.4 5-11.3 15-.8 18 12.8 3 42.4 7 62.3-21l-.8 3.2c5 4.2 5 30.5 5 49.4 1 19 2 36.4 6 46.7 3 10.3 8 37 44 29.3 30-6 52-15 54-101"/><path fill="#336791" d="M402.4 271.2c-50.3 10.4-53.8-6.6-53.8-6.6 53-78.8 75.3-179 56.2-203.3C352.5-5.5 262 26 260.5 27h-.5c-10-2-21-3.3-33.5-3.5-22.8-.4-40 6-53.2 16 0 0-161.4-66.6-154 83.5 1.7 32 46 241.7 98.6 178.3 19-23.2 37-42.8 37-42.8 9 6.2 20 9.3 32 8.2l1-.8c-1 2 0 5 0 9-14 15-10 17-37 23-27.7 5-11 15-1 18 13 3 42.2 7 62.2-21l-.7 3.2c5.2 4.2 9 27.6 8.3 49-.7 21-1 35.7 3 47 4.3 11.4 8.5 37 44 29.4 30-6.3 45.4-23 47.5-50.5 1.5-19.6 5-16.7 5-34.3l3-8.4c3-26.8.4-35.4 19-31.4l4.3.2c13.3.6 31-2 41.4-7 22.4-10.4 35.6-27.7 13.6-23z"/><path d="M216 286.5c-1.5 49.5.2 99.4 5 111.5 5 12 15.3 35.7 51 28 29.8-6.4 40.6-18.7 45.3-46 3.5-20 10.2-76 11-87.3M173 38.3s-161.4-66-154 84c1.7 32 46 241.7 98.6 178.4 19.2-23.2 36.6-41.3 36.6-41.3M260.4 26.2c-5.6 1.8 89.8-35 144 34.4 19.2 24.5-3 124.6-56 203.4"/><path d="M348.3 264s3.4 17 53.7 6.6c22-4.6 8.8 12.8-13.5 23.2-18.4 8.5-59.5 10.7-60.2-1-1.7-30.5 21.7-21.2 20-29-1.6-6.7-12-13.4-19-30.2-6-14.6-82.7-126.8 21.4-110.2 3.8-.8-27.2-99-124.6-100.6-97-1.6-94 119.8-94 119.8" stroke-linejoin="bevel"/><path d="M188.6 274.3c-13.6 15.2-9.6 18-36.7 23.4-28 5.7-12 15.8-1 18.4 12 4 42 8 62-20 6-8 0-22-9-25-4-1-10-3-17 4zm-1-.2c-1.2-9 3-19 7.7-32 7-18 22.8-37 10-96-9.3-44-73.3-9-73.3-3s2.6 31-1 59c-5.5 37 23.2 69 56.2 65"/><path fill="#FFF" stroke-width="4.2" d="M172.5 141.7c-.3 2 3.8 7.5 9 8.2 5.2 0 9.7-4 10-6 .3-2-3.7-4-9-5-5.2-1-9.7 0-10 2z"/><path fill="#FFF" stroke-width="2.1" d="M332 137.5c.2 2-3.8 7.5-9 8.2-5.3.8-9.8-3.5-10-5.5-.3-2 3.7-4.3 9-5 5.2-.7 9.7.3 10 2.4z"/><path d="M350.7 123.4c.8 16-3.5 27-4 44-.8 24.7 11.8 53-7.2 81.4"/></g></svg>