<svg xmlns="http://www.w3.org/2000/svg" width="118.6" height="119.9" xmlns:xlink="http://www.w3.org/1999/xlink" version="1"><defs><linearGradient id="a"><stop offset="0" stop-color="#ffd43b"/><stop offset="1" stop-color="#ffe873"/></linearGradient><linearGradient id="b"><stop offset="0" stop-color="#5a9fd4"/><stop offset="1" stop-color="#306998"/></linearGradient><linearGradient id="d" x1="151" x2="112" y1="192.4" y2="137.3" xlink:href="#a" gradientUnits="userSpaceOnUse" gradientTransform="matrix(.56254 0 0 .56797 -9.4 -5.305)"/><linearGradient id="c" x1="26.6" x2="135.7" y1="20.6" y2="114.4" xlink:href="#b" gradientUnits="userSpaceOnUse" gradientTransform="matrix(.56254 0 0 .56797 -9.4 -5.305)"/></defs><path fill="url(#c)" d="M60.5 6.4c-4.6 0-9 .4-12.8 1-11.3 2-13.4 6.3-13.4 14v10.2H61V35H24.4c-8 0-14.7 4.7-16.8 13.6C5 59 5 65.2 7.6 76c2 7.8 6.3 13.5 14 13.5H31V77.2c0-8.8 7.6-16.6 16.7-16.6h26.8C82 60.6 88 54.4 88 47V21.4c0-7.2-6.2-12.7-13.5-14-4.6-.7-9.4-1-14-1zM46 14.6c2.8 0 5 2.3 5 5 0 3-2.2 5.2-5 5.2s-5-2.2-5-5c0-3 2.2-5.2 5-5.2z" transform="translate(-5.59 -6.397)"/><path fill="url(#d)" d="M91.2 35v12c0 9.2-7.8 17-16.7 17H47.7c-7.3 0-13.4 6.2-13.4 13.6V103c0 7.4 6.3 11.7 13.4 13.7 8.5 2.5 16.6 3 26.8 0 6.7-2 13.4-5.8 13.4-13.6V93H61v-3.5h40.3c7.8 0 10.7-5.4 13.4-13.6 2.8-8.7 2.7-16.8 0-27.6-2-7.7-5.6-13.5-13.4-13.5h-10zm-15 64.7c2.7 0 5 2.3 5 5 0 3-2.3 5.2-5 5.2-2.8 0-5-2.6-5-5.4s2.2-5 5-5z" transform="translate(-5.59 -6.397)"/></svg>