<svg xmlns="http://www.w3.org/2000/svg" viewBox="0 0 1969 394" preserveAspectRatio="xMinYMin meet"><path fill="#25a0ed" d="M565 255q4 4 4 12 0 12-15 20a135 135 0 01-33 14 132 132 0 01-34 4q-49 0-78-28t-28-79q0-32 12-57a92 92 0 0136-38q23-14 51-14 42 0 66 27t25 73q0 17-16 17H424q4 66 63 66 16 0 28-5a196 196 0 0024-11l7-3 9-3a12 12 0 0110 5zM442 137q-15 15-18 44h110q-2-29-15-45t-38-15q-24 0-39 16zM793 6q6 5 6 14v264q0 9-6 15t-15 5q-10 0-16-5t-6-15v-17a66 66 0 01-27 28q-18 10-41 10-27 0-48-13t-33-39q-12-24-11-56 0-33 11-57t33-37q21-14 48-14 23 0 41 10a67 67 0 0127 29V20q0-9 6-15t15-5q10 0 16 6zm-52 246q15-19 15-54t-15-55q-15-19-43-19t-44 19q-15 19-15 54t16 54q15 20 43 20t43-19zm284-156q5 5 6 15v173q0 9-6 15t-16 5q-9 0-15-5t-5-14v-16a67 67 0 01-27 27q-18 9-39 9-76 0-76-83V111q0-10 6-15t16-6q10 0 16 6t5 15v110q0 26 11 37t31 12q25 0 40-16t16-43V111q0-9 6-15t15-6q10 0 16 6z"/><path fill="#59c3f7" d="M1234 103q21 14 33 39t11 56q0 33-11 57t-32 37q-21 13-49 13-24 0-42-10a68 68 0 01-27-31v100q0 8-5 13t-13 4q-8 0-12-5a16 16 0 01-5-12V108q0-8 5-13t12-4q9 0 13 4t4 13v23a68 68 0 0128-31q18-10 42-10 28 0 48 13zm-8 153q17-20 17-58t-17-58q-16-21-46-21t-47 20q-17 21-16 59t16 58q16 21 47 21t46-21zm256-84v115q0 8-5 13t-12 4q-8 0-12-4t-5-13v-20a61 61 0 01-25 28q-16 10-38 10a84 84 0 01-37-8 66 66 0 01-26-22 56 56 0 01-10-32q0-24 12-37t39-18q27-6 76-6h9v-14q0-26-10-38t-34-12q-29 0-59 16-11 7-16 7a11 11 0 01-9-3 14 14 0 01-3-10 16 16 0 014-11q3-4 11-9a137 137 0 0134-13 150 150 0 0138-5q78 0 78 82zm-50 89q16-17 16-45v-12h-7q-38 0-57 3t-28 11q-9 7-9 22 0 16 12 27t31 11q25 0 42-17zm213 30q0 7-5 11t-16 2h-12q-34-3-50-21t-16-54V122h-29q-7 0-11-3a12 12 0 01-4-10 13 13 0 014-10q4-4 11-4h29V47c0-6 1-10 4-13s8-4 13-4q8 0 12 4t5 13v48h47q7 0 11 4a13 13 0 014 10 12 12 0 01-4 10q-4 3-11 3h-47v109q0 23 10 34t28 11l12 1q15 1 15 14zm144-186q0 7-4 11t-13 5l-13 1q-29 3-42 20t-14 42v103q0 9-5 13t-12 4q-8 0-13-4t-5-13V108q0-8 5-13a18 18 0 0113-4 16 16 0 0111 4q5 5 5 12v24q9-19 25-28t38-12h6q18-2 18 14zm180 67v115q0 8-5 13t-12 4q-7 0-12-4t-5-13v-20a61 61 0 01-25 28q-16 10-38 10a84 84 0 01-37-8 66 66 0 01-26-22 56 56 0 01-10-32q0-24 12-37t39-18q27-6 76-6h9v-14q0-26-10-38t-34-12q-29 0-59 16-11 7-16 7a11 11 0 01-9-3 14 14 0 01-3-10 16 16 0 014-11q3-4 11-9a137 137 0 0134-13 150 150 0 0138-5q78 0 78 82zm-50 89q16-17 16-45v-12h-7q-38 0-57 3t-28 11q-9 7-9 22 0 16 12 27t31 11q25 0 42-17z"/><path fill="none" stroke="#25a0ed" stroke-miterlimit="10" stroke-width="24" d="M73 126c-7 1-14 5-16 11L12 245a4 4 0 001 5l130 130a7 7 0 009 0l129-131a4 4 0 001-5l-45-108c-3-6-9-10-17-10z"/><path fill="none" stroke="#2ba0ea" stroke-linecap="round" stroke-miterlimit="10" stroke-width="12" d="M148 374l-1-111"/><path fill="none" stroke="#25a0ed" stroke-miterlimit="10" stroke-width="10" d="M147 234h0c8 0 13-6 13-12v-23c0-7-6-12-13-12h0c-7 0-13 5-13 12v23c1 7 6 12 13 12z"/><path stroke="#25a0ed" stroke-linecap="round" stroke-miterlimit="10" stroke-width="18" d="M9 11h277M59 11v84m179-84v81M59 95h179"/><path fill="#1375d3" d="M288 67l-4-5a2 2 0 00-3 0l-3 5a2 2 0 01-3-1V16a2 2 0 012-2h12a2 2 0 012 2v50a2 2 0 01-3 1z"/></svg>