<svg xmlns="http://www.w3.org/2000/svg" x="0" y="0" viewBox="0 0 536 82.9" xml:space="preserve"><defs/><style type="text/css">.s{fill:#1ea0f0}</style><g><g><path d="M145 .8L3 48.9a4.4 4.4 0 002.7 8.3h.1l29.5-10 .1.6 9.9 29.1a6.5 6.5 0 008.2 4l70.9-24a6.5 6.5 0 004-8.2l-9.9-29.1-.3-.6 29.5-10a4.4 4.4 0 003.3-5.2 4.4 4.4 0 00-5.2-3.3l-.8.3z" class="s"/><path d="M146.9 45l-2.5-3c-.2-.3-.6-.3-.9-.1l-.1.1-2.4 3c-.2.3-.6.3-.9.1a.8.8 0 01-.2-.5l-.2-38.8c0-1.2.3-2.2.7-2.2h6.6c.4 0 .8 1 .8 2.2l.2 38.7c0 .3-.3.6-.6.6-.2.1-.4 0-.5-.1z" class="s"/><path d="M202.6 55.6c.6.7.9 1.7.8 2.6 0 1.8-1.1 3.3-3.3 4.5a29.4 29.4 0 01-14.5 3.9c-7.2 0-12.8-2.1-17-6.3s-6.2-9.9-6.2-17.1c-.1-4.3.9-8.5 2.7-12.3 1.7-3.5 4.4-6.4 7.7-8.4 3.4-2 7.3-3.1 11.3-3 6.1 0 10.9 1.9 14.4 5.8s5.3 9.2 5.3 15.8c0 2.5-1.1 3.7-3.3 3.7h-28.6c.6 9.6 5.2 14.4 13.8 14.4 2 0 4-.3 5.9-.9 1.8-.7 3.6-1.5 5.3-2.4l1.5-.8a5 5 0 012.1-.6c.8 0 1.6.4 2.1 1.1zm-26.9-25.7a15.6 15.6 0 00-3.9 9.6h23.9a16 16 0 00-3.2-9.7 10.3 10.3 0 00-8.2-3.4c-3.2-.1-6.3 1.1-8.6 3.5z" class="s"/><path d="M252.7 1.3c.9.8 1.4 2 1.3 3.2v57.3c.1 1.2-.4 2.5-1.3 3.3a5.4 5.4 0 01-6.8 0 4.6 4.6 0 01-1.3-3.3v-3.7a15.6 15.6 0 01-5.9 6.3 19 19 0 01-9 2.2 19.1 19.1 0 01-17.5-11.3 29.2 29.2 0 01-2.6-12.3c-.1-4.3.8-8.5 2.6-12.3 3.1-6.9 10-11.2 17.6-11 3.1-.1 6.2.7 8.9 2.2 2.5 1.4 4.6 3.6 5.9 6.2V4.4c-.1-1.2.4-2.3 1.3-3.1a5 5 0 013.4-1.2c1.2-.1 2.4.4 3.4 1.2zM241.4 55c2.2-2.8 3.3-6.7 3.3-11.9a19 19 0 00-3.3-11.9c-2.2-2.8-5.3-4.2-9.4-4.2s-7.3 1.4-9.5 4.1-3.4 6.7-3.4 11.7 1.1 9 3.4 11.9a12.5 12.5 0 0017.7 1.2c.5-.2.8-.5 1.2-.9z" class="s"/><path d="M303.6 21c.9.9 1.3 2.1 1.3 3.3V62a4 4 0 01-1.3 3.1c-.9.8-2.2 1.3-3.4 1.2-1.2.1-2.3-.4-3.2-1.2a4 4 0 01-1.2-3.1v-3.5a14 14 0 01-5.9 5.9 16.5 16.5 0 01-8.4 2c-11 0-16.5-6-16.5-18.1v-24c-.1-1.2.4-2.4 1.3-3.3a5 5 0 013.5-1.2c1.2-.1 2.5.4 3.4 1.2.9.9 1.3 2.1 1.3 3.3v24c0 3.7.7 6.3 2.2 8.1 1.5 1.7 3.8 2.6 6.9 2.6 3.3.1 6.5-1.1 8.8-3.5a13 13 0 003.3-9.4V24.3c-.1-1.2.4-2.4 1.3-3.3a5 5 0 016.6 0z" class="s"/><path d="M316.4 62.7c-1-.5-1.8-1.2-2.4-2.1a4.5 4.5 0 01.1-5c.5-.7 1.3-1 2.1-1 1.4.2 2.7.7 3.8 1.5 1.7.9 3.6 1.7 5.4 2.4 2.1.7 4.4 1 6.6.9 2.4.1 4.9-.4 7-1.6a5 5 0 002.5-4.5 4 4 0 00-1-3 9 9 0 00-3.4-2c-2.3-.8-4.7-1.4-7.1-1.9a28.1 28.1 0 01-11.7-4.8c-2.4-2-3.7-5.1-3.6-8.2 0-2.6.8-5.1 2.3-7.2 1.6-2.2 3.8-4 6.4-5a24.4 24.4 0 0116.5-.8c2.2.6 4.3 1.5 6.2 2.8 2 1.3 3.1 2.9 3.1 4.7 0 .9-.3 1.8-.9 2.5-.5.6-1.3 1-2.1 1-.6 0-1.1-.1-1.7-.4l-2.2-1.2c-1.5-.9-3.1-1.7-4.7-2.3-1.7-.6-3.6-.9-5.4-.8-2.2-.1-4.4.5-6.3 1.7a5.4 5.4 0 00-2.4 4.5c0 1.6.8 3.1 2.2 4 1.5 1 4.2 1.9 8.2 2.7 3.3.6 6.6 1.6 9.7 3 2.1.9 3.8 2.3 5.1 4.2 1.1 1.9 1.6 4.1 1.5 6.3.1 3.9-1.8 7.5-5 9.7a23 23 0 01-13.5 3.7 27 27 0 01-15.3-3.8z" class="s"/><path d="M391.4 24.1c2.9 3 4.4 7.6 4.4 13.8V62c.1 1.2-.4 2.4-1.2 3.3a5 5 0 01-3.3 1.2 4.2 4.2 0 01-4.5-3.9v-4.1a13.2 13.2 0 01-5.2 6 16.6 16.6 0 01-8.1 2.1c-2.8 0-5.6-.6-8.1-1.8a14.7 14.7 0 01-5.8-5 12 12 0 01-2.1-7.1c-.1-3.3.8-5.9 2.5-7.8s4.5-3.3 8.4-4.1c5.4-1 10.8-1.4 16.2-1.3h2.1v-2.7c0-3.5-.7-6-2.1-7.5-1.4-1.5-3.7-2.3-6.9-2.3-2.1 0-4.1.3-6.1.8-2.2.6-4.3 1.5-6.3 2.4a9.5 9.5 0 01-3.5 1.4c-.9 0-1.7-.3-2.3-1-.6-.7-.9-1.7-.9-2.6 0-.9.3-1.7.8-2.5.7-.9 1.6-1.6 2.5-2.1a34.6 34.6 0 0116-3.9c6.1.1 10.6 1.6 13.5 4.6zm-7.9 32c2.2-2.4 3.4-5.7 3.3-9v-2.4H385c-3.7-.1-7.4.1-11.1.7-2 .2-4 .9-5.6 2.2a5.7 5.7 0 00-1.7 4.4c-.1 2.1.8 4.1 2.4 5.5a8.8 8.8 0 006 2.1c3.2.2 6.3-1.1 8.5-3.5z" class="s"/><path d="M447.4 37.8V62c.1 1.2-.4 2.4-1.3 3.3-1 .8-2.2 1.2-3.5 1.2-1.2.1-2.5-.4-3.4-1.2a4 4 0 01-1.2-3.2V38.3c0-3.8-.8-6.7-2.3-8.4-1.5-1.8-3.9-2.7-7.1-2.7-3.4-.2-6.7 1.1-9.1 3.5a12.9 12.9 0 00-3.4 9.5V62c.1 1.2-.4 2.4-1.3 3.2-.9.8-2.1 1.3-3.4 1.2-1.3.1-2.5-.4-3.5-1.3-.9-.8-1.4-2-1.3-3.2V24.2c0-1.2.5-2.4 1.4-3.2.9-.8 2.1-1.3 3.4-1.3 1.2-.1 2.4.4 3.3 1.2.8.8 1.2 2 1.2 3.2v3.8c1.4-2.6 3.6-4.8 6.2-6.2a19 19 0 019-2.1c10.8 0 16.3 6.1 16.3 18.2z" class="s"/><path d="M446.1 82.1a3.5 3.5 0 01-.9-4.9l.3-.4c.9-.7 1.9-1.1 3-1.1l2.6-.2c2 0 4-.8 5.4-2.2 1.2-1.4 1.8-3.5 1.8-6.5V24.3c-.1-1.3.4-2.5 1.3-3.4a5 5 0 013.3-1.2c1.2-.1 2.4.4 3.3 1.2.9.9 1.4 2.1 1.3 3.4v42c0 5.2-1.2 9.1-3.6 11.8s-6.2 4.2-11.2 4.5l-2.5.2c-1.4.2-2.8-.1-4.1-.7zm12.7-72.9a5.1 5.1 0 01-1.6-3.9c-.1-1.5.5-2.9 1.6-3.8a7 7 0 018.5 0c1.1 1 1.7 2.4 1.6 3.8.1 1.5-.5 2.9-1.6 3.9-2.5 2-6 2-8.5 0z" class="s"/><path d="M511.3 24.1c2.9 3 4.4 7.6 4.4 13.8V62c.1 1.2-.4 2.4-1.2 3.3a5 5 0 01-3.3 1.2 4.2 4.2 0 01-4.5-3.9v-4.1a13.2 13.2 0 01-5.2 6 16.6 16.6 0 01-8.1 2.1c-2.8 0-5.6-.6-8.1-1.8a15.5 15.5 0 01-5.8-5 12 12 0 01-2.1-7.1c-.1-3.3.8-6 2.5-7.8s4.5-3.2 8.4-4.1c5.4-1 10.8-1.4 16.2-1.3h2.1v-2.7c0-3.5-.7-6-2.1-7.5-1.4-1.5-3.7-2.3-6.9-2.3-2.1 0-4.1.3-6.1.8-2.2.6-4.3 1.5-6.3 2.4a9.5 9.5 0 01-3.5 1.4c-.9 0-1.7-.3-2.3-1-.6-.7-.9-1.7-.9-2.6 0-.9.3-1.7.8-2.5.7-.9 1.6-1.6 2.5-2.1a34.6 34.6 0 0116-3.9c6.1.1 10.6 1.6 13.5 4.6zm-7.9 32c2.2-2.4 3.4-5.7 3.3-9v-2.4H505c-3.7-.1-7.4.1-11.1.7-2 .2-3.9.9-5.6 2.2a5.5 5.5 0 00-1.7 4.4c-.1 2.1.8 4.1 2.4 5.5a8.8 8.8 0 006 2.1c3.2.2 6.2-1.1 8.4-3.5z" class="s"/><path d="M528 65.3a4.1 4.1 0 01-1.3-3.3V4.6c-.1-1.3.4-2.5 1.3-3.4.9-.8 2.2-1.2 3.4-1.2a5 5 0 013.3 1.2c.9.9 1.4 2.1 1.3 3.4V62a4 4 0 01-1.3 3.3c-.9.8-2.1 1.2-3.3 1.1-1.3.1-2.5-.3-3.4-1.1z" class="s"/></g></g></svg>