<svg xmlns="http://www.w3.org/2000/svg" viewBox="0 0 984 225"><path d="M75 187a74 74 0 01-75-74V0c21 0 39 17 39 38v1h92v38H39v36c-1 20 16 36 36 36 15 0 28-9 34-22 4-9 12-14 21-14h20a74 74 0 01-75 74zM267 99c-8-19-30-27-48-20-14 6-23 19-23 34v74c-21 0-38-17-38-38V0c21 0 38 17 38 38v10a78 78 0 0166-3 74 74 0 0146 68v74c-21 0-39-17-39-38v-36c1-5 0-10-2-14zM317 39c21 0 38 17 38 38v36c0 20 16 36 36 36a37 37 0 0037-36V39c22 0 39 17 39 38v36a75 75 0 01-46 68c-19 8-40 8-59 0a74 74 0 01-45-68zM623 113a74 74 0 01-46 68c-21 9-46 8-66-3v47c-21 0-38-17-38-37v-75a74 74 0 0146-68c18-8 39-8 58 0a74 74 0 0146 68zm-39 0c0-20-16-36-37-36a36 36 0 101 72 37 37 0 0036-36zM745 113l-6-14c-8-19-29-27-48-19-13 5-22 18-22 33v74c-21 0-39-17-39-38v-36a74 74 0 0146-68c19-8 40-8 59 0 18 7 32 21 40 39 6 14-5 29-20 29z" class="st0" fill="#6268ab" stroke-width=".9"/><path stroke-miterlimit="10" d="M856 44a69 69 0 0170 68v70h-70a70 70 0 01-65-96c4-9 9-16 16-22a71 71 0 0149-20zm42 110v-42a41 41 0 00-25-38c-6-2-11-3-17-3-17 0-32 10-39 25-2 5-3 11-3 16a41 41 0 0042 42z" fill="#6268ab" stroke="#6268ab" stroke-width="8.7"/><path d="M946 40V2h10c15 0 28 12 28 28v10zm38 10v137h-9c-16 0-29-13-29-29V50z" class="st0" fill="#6268ab" stroke-width=".9"/></svg>