<svg xmlns="http://www.w3.org/2000/svg"><path fill="#fff" d="M0 0h520v520H0z"/><path d="M32 32h8v8h-8zm8 0h8v8h-8zm8 0h8v8h-8zm8 0h8v8h-8zm8 0h8v8h-8zm8 0h8v8h-8zm8 0h8v8h-8zm16 0h8v8h-8zm24 0h8v8h-8zm16 0h8v8h-8zm32 0h8v8h-8zm16 0h8v8h-8zm16 0h8v8h-8zm24 0h8v8h-8zm8 0h8v8h-8zm16 0h8v8h-8zm8 0h8v8h-8zm8 0h8v8h-8zm24 0h8v8h-8zm24 0h8v8h-8zm8 0h8v8h-8zm16 0h8v8h-8zm8 0h8v8h-8zm8 0h8v8h-8zm16 0h8v8h-8zm8 0h8v8h-8zm8 0h8v8h-8zm8 0h8v8h-8zm8 0h8v8h-8zm8 0h8v8h-8zm24 0h8v8h-8zm8 0h8v8h-8zm8 0h8v8h-8zm8 0h8v8h-8zm8 0h8v8h-8zm8 0h8v8h-8zm8 0h8v8h-8zM32 40h8v8h-8zm48 0h8v8h-8zm16 0h8v8h-8zm8 0h8v8h-8zm8 0h8v8h-8zm8 0h8v8h-8zm8 0h8v8h-8zm24 0h8v8h-8zm8 0h8v8h-8zm24 0h8v8h-8zm8 0h8v8h-8zm16 0h8v8h-8zm8 0h8v8h-8zm8 0h8v8h-8zm16 0h8v8h-8zm8 0h8v8h-8zm24 0h8v8h-8zm8 0h8v8h-8zm8 0h8v8h-8zm8 0h8v8h-8zm8 0h8v8h-8zm8 0h8v8h-8zm24 0h8v8h-8zm24 0h8v8h-8zm8 0h8v8h-8zm16 0h8v8h-8zm24 0h8v8h-8zm24 0h8v8h-8zm48 0h8v8h-8zM32 48h8v8h-8zm16 0h8v8h-8zm8 0h8v8h-8zm8 0h8v8h-8zm16 0h8v8h-8zm24 0h8v8h-8zm8 0h8v8h-8zm24 0h8v8h-8zm8 0h8v8h-8zm8 0h8v8h-8zm8 0h8v8h-8zm8 0h8v8h-8zm8 0h8v8h-8zm24 0h8v8h-8zm8 0h8v8h-8zm24 0h8v8h-8zm72 0h8v8h-8zm24 0h8v8h-8zm24 0h8v8h-8zm24 0h8v8h-8zm8 0h8v8h-8zm16 0h8v8h-8zm8 0h8v8h-8zm24 0h8v8h-8zm16 0h8v8h-8zm8 0h8v8h-8zm8 0h8v8h-8zm16 0h8v8h-8zM32 56h8v8h-8zm16 0h8v8h-8zm8 0h8v8h-8zm8 0h8v8h-8zm16 0h8v8h-8zm16 0h8v8h-8zm8 0h8v8h-8zm24 0h8v8h-8zm8 0h8v8h-8zm8 0h8v8h-8zm48 0h8v8h-8zm8 0h8v8h-8zm16 0h8v8h-8zm8 0h8v8h-8zm72 0h8v8h-8zm8 0h8v8h-8zm16 0h8v8h-8zm24 0h8v8h-8zm24 0h8v8h-8zm8 0h8v8h-8zm32 0h8v8h-8zm24 0h8v8h-8zm16 0h8v8h-8zm8 0h8v8h-8zm8 0h8v8h-8zm16 0h8v8h-8zM32 64h8v8h-8zm16 0h8v8h-8zm8 0h8v8h-8zm8 0h8v8h-8zm16 0h8v8h-8zm24 0h8v8h-8zm16 0h8v8h-8zm40 0h8v8h-8zm16 0h8v8h-8zm16 0h8v8h-8zm8 0h8v8h-8zm16 0h8v8h-8zm24 0h8v8h-8zm8 0h8v8h-8zm8 0h8v8h-8zm8 0h8v8h-8zm8 0h8v8h-8zm8 0h8v8h-8zm8 0h8v8h-8zm16 0h8v8h-8zm8 0h8v8h-8zm8 0h8v8h-8zm8 0h8v8h-8zm8 0h8v8h-8zm8 0h8v8h-8zm16 0h8v8h-8zm8 0h8v8h-8zm40 0h8v8h-8zm24 0h8v8h-8zm16 0h8v8h-8zm8 0h8v8h-8zm8 0h8v8h-8zm16 0h8v8h-8zM32 72h8v8h-8zm48 0h8v8h-8zm24 0h8v8h-8zm24 0h8v8h-8zm8 0h8v8h-8zm8 0h8v8h-8zm8 0h8v8h-8zm40 0h8v8h-8zm16 0h8v8h-8zm16 0h8v8h-8zm16 0h8v8h-8zm32 0h8v8h-8zm8 0h8v8h-8zm16 0h8v8h-8zm8 0h8v8h-8zm24 0h8v8h-8zm40 0h8v8h-8zm24 0h8v8h-8zm8 0h8v8h-8zm32 0h8v8h-8zm48 0h8v8h-8zM32 80h8v8h-8zm8 0h8v8h-8zm8 0h8v8h-8zm8 0h8v8h-8zm8 0h8v8h-8zm8 0h8v8h-8zm8 0h8v8h-8zm16 0h8v8h-8zm16 0h8v8h-8zm16 0h8v8h-8zm16 0h8v8h-8zm16 0h8v8h-8zm16 0h8v8h-8zm16 0h8v8h-8zm16 0h8v8h-8zm16 0h8v8h-8zm16 0h8v8h-8zm16 0h8v8h-8zm16 0h8v8h-8zm16 0h8v8h-8zm16 0h8v8h-8zm16 0h8v8h-8zm16 0h8v8h-8zm16 0h8v8h-8zm16 0h8v8h-8zm16 0h8v8h-8zm16 0h8v8h-8zm16 0h8v8h-8zm16 0h8v8h-8zm8 0h8v8h-8zm8 0h8v8h-8zm8 0h8v8h-8zm8 0h8v8h-8zm8 0h8v8h-8zm8 0h8v8h-8zM96 88h8v8h-8zm64 0h8v8h-8zm8 0h8v8h-8zm8 0h8v8h-8zm16 0h8v8h-8zm8 0h8v8h-8zm40 0h8v8h-8zm32 0h8v8h-8zm8 0h8v8h-8zm8 0h8v8h-8zm8 0h8v8h-8zm8 0h8v8h-8zm8 0h8v8h-8zm8 0h8v8h-8zm8 0h8v8h-8zm8 0h8v8h-8zm8 0h8v8h-8zm8 0h8v8h-8zm8 0h8v8h-8zm8 0h8v8h-8zm8 0h8v8h-8zm8 0h8v8h-8zm24 0h8v8h-8zm8 0h8v8h-8zM32 96h8v8h-8zm16 0h8v8h-8zm8 0h8v8h-8zm16 0h8v8h-8zm8 0h8v8h-8zm8 0h8v8h-8zm24 0h8v8h-8zm24 0h8v8h-8zm8 0h8v8h-8zm8 0h8v8h-8zm8 0h8v8h-8zm8 0h8v8h-8zm24 0h8v8h-8zm16 0h8v8h-8zm8 0h8v8h-8zm16 0h8v8h-8zm8 0h8v8h-8zm8 0h8v8h-8zm8 0h8v8h-8zm8 0h8v8h-8zm8 0h8v8h-8zm24 0h8v8h-8zm24 0h8v8h-8zm16 0h8v8h-8zm8 0h8v8h-8zm8 0h8v8h-8zm16 0h8v8h-8zm8 0h8v8h-8zm24 0h8v8h-8zm16 0h8v8h-8zm16 0h8v8h-8zm24 0h8v8h-8zm16 0h8v8h-8zm8 0h8v8h-8zm-448 8h8v8h-8zm24 0h8v8h-8zm16 0h8v8h-8zm16 0h8v8h-8zm8 0h8v8h-8zm24 0h8v8h-8zm24 0h8v8h-8zm16 0h8v8h-8zm8 0h8v8h-8zm16 0h8v8h-8zm32 0h8v8h-8zm8 0h8v8h-8zm16 0h8v8h-8zm8 0h8v8h-8zm16 0h8v8h-8zm24 0h8v8h-8zm16 0h8v8h-8zm8 0h8v8h-8zm16 0h8v8h-8zm48 0h8v8h-8zm16 0h8v8h-8zm24 0h8v8h-8zm16 0h8v8h-8zm8 0h8v8h-8zm16 0h8v8h-8zm8 0h8v8h-8zm-424 8h8v8h-8zm8 0h8v8h-8zm8 0h8v8h-8zm16 0h8v8h-8zm8 0h8v8h-8zm24 0h8v8h-8zm8 0h8v8h-8zm8 0h8v8h-8zm8 0h8v8h-8zm40 0h8v8h-8zm8 0h8v8h-8zm24 0h8v8h-8zm8 0h8v8h-8zm8 0h8v8h-8zm8 0h8v8h-8zm16 0h8v8h-8zm8 0h8v8h-8zm16 0h8v8h-8zm48 0h8v8h-8zm32 0h8v8h-8zm24 0h8v8h-8zm24 0h8v8h-8zm16 0h8v8h-8zm8 0h8v8h-8zm32 0h8v8h-8zm16 0h8v8h-8zm8 0h8v8h-8zm8 0h8v8h-8zm-448 8h8v8h-8zm24 0h8v8h-8zm32 0h8v8h-8zm16 0h8v8h-8zm8 0h8v8h-8zm8 0h8v8h-8zm24 0h8v8h-8zm8 0h8v8h-8zm24 0h8v8h-8zm8 0h8v8h-8zm32 0h8v8h-8zm32 0h8v8h-8zm8 0h8v8h-8zm24 0h8v8h-8zm8 0h8v8h-8zm16 0h8v8h-8zm8 0h8v8h-8zm32 0h8v8h-8zm8 0h8v8h-8zm16 0h8v8h-8zm32 0h8v8h-8zm48 0h8v8h-8zm24 0h8v8h-8zm8 0h8v8h-8zm-432 8h8v8h-8zm8 0h8v8h-8zm8 0h8v8h-8zm16 0h8v8h-8zm16 0h8v8h-8zm16 0h8v8h-8zm16 0h8v8h-8zm16 0h8v8h-8zm8 0h8v8h-8zm16 0h8v8h-8zm8 0h8v8h-8zm8 0h8v8h-8zm8 0h8v8h-8zm16 0h8v8h-8zm16 0h8v8h-8zm8 0h8v8h-8zm16 0h8v8h-8zm56 0h8v8h-8zm8 0h8v8h-8zm8 0h8v8h-8zm40 0h8v8h-8zm8 0h8v8h-8zm8 0h8v8h-8zm8 0h8v8h-8zm16 0h8v8h-8zm24 0h8v8h-8zm48 0h8v8h-8zm-432 8h8v8h-8zm16 0h8v8h-8zm8 0h8v8h-8zm8 0h8v8h-8zm32 0h8v8h-8zm8 0h8v8h-8zm8 0h8v8h-8zm24 0h8v8h-8zm8 0h8v8h-8zm8 0h8v8h-8zm8 0h8v8h-8zm16 0h8v8h-8zm40 0h8v8h-8zm8 0h8v8h-8zm16 0h8v8h-8zm56 0h8v8h-8zm16 0h8v8h-8zm8 0h8v8h-8zm16 0h8v8h-8zm8 0h8v8h-8zm24 0h8v8h-8zm8 0h8v8h-8zm16 0h8v8h-8zm16 0h8v8h-8zm8 0h8v8h-8zm8 0h8v8h-8zm8 0h8v8h-8zm8 0h8v8h-8zm8 0h8v8h-8zm8 0h8v8h-8zm8 0h8v8h-8zm-440 8h8v8h-8zm8 0h8v8h-8zm8 0h8v8h-8zm16 0h8v8h-8zm16 0h8v8h-8zm16 0h8v8h-8zm8 0h8v8h-8zm32 0h8v8h-8zm16 0h8v8h-8zm16 0h8v8h-8zm8 0h8v8h-8zm8 0h8v8h-8zm24 0h8v8h-8zm16 0h8v8h-8zm8 0h8v8h-8zm8 0h8v8h-8zm16 0h8v8h-8zm8 0h8v8h-8zm24 0h8v8h-8zm8 0h8v8h-8zm24 0h8v8h-8zm16 0h8v8h-8zm8 0h8v8h-8zm8 0h8v8h-8zm24 0h8v8h-8zm16 0h8v8h-8zm24 0h8v8h-8zm24 0h8v8h-8zm8 0h8v8h-8zm32 0h8v8h-8zm-448 8h8v8h-8zm16 0h8v8h-8zm72 0h8v8h-8zm16 0h8v8h-8zm8 0h8v8h-8zm8 0h8v8h-8zm24 0h8v8h-8zm40 0h8v8h-8zm16 0h8v8h-8zm8 0h8v8h-8zm40 0h8v8h-8zm32 0h8v8h-8zm32 0h8v8h-8zm16 0h8v8h-8zm16 0h8v8h-8zm8 0h8v8h-8zm24 0h8v8h-8zm8 0h8v8h-8zm8 0h8v8h-8zm8 0h8v8h-8zm32 0h8v8h-8zm8 0h8v8h-8zm8 0h8v8h-8zm-448 8h8v8h-8zm24 0h8v8h-8zm24 0h8v8h-8zm8 0h8v8h-8zm8 0h8v8h-8zm16 0h8v8h-8zm32 0h8v8h-8zm8 0h8v8h-8zm8 0h8v8h-8zm8 0h8v8h-8zm32 0h8v8h-8zm40 0h8v8h-8zm32 0h8v8h-8zm16 0h8v8h-8zm24 0h8v8h-8zm8 0h8v8h-8zm16 0h8v8h-8zm8 0h8v8h-8zm56 0h8v8h-8zm16 0h8v8h-8zm40 0h8v8h-8zm16 0h8v8h-8zm8 0h8v8h-8zm-448 8h8v8h-8zm32 0h8v8h-8zm8 0h8v8h-8zm40 0h8v8h-8zm16 0h8v8h-8zm8 0h8v8h-8zm48 0h8v8h-8zm24 0h8v8h-8zm8 0h8v8h-8zm8 0h8v8h-8zm32 0h8v8h-8zm16 0h8v8h-8zm8 0h8v8h-8zm8 0h8v8h-8zm8 0h8v8h-8zm24 0h8v8h-8zm8 0h8v8h-8zm8 0h8v8h-8zm16 0h8v8h-8zm16 0h8v8h-8zm16 0h8v8h-8zm8 0h8v8h-8zm8 0h8v8h-8zm16 0h8v8h-8zm32 0h8v8h-8zm16 0h8v8h-8zm-432 8h8v8h-8zm32 0h8v8h-8zm8 0h8v8h-8zm8 0h8v8h-8zm8 0h8v8h-8zm8 0h8v8h-8zm40 0h8v8h-8zm8 0h8v8h-8zm16 0h8v8h-8zm40 0h8v8h-8zm16 0h8v8h-8zm32 0h8v8h-8zm16 0h8v8h-8zm8 0h8v8h-8zm8 0h8v8h-8zm32 0h8v8h-8zm8 0h8v8h-8zm8 0h8v8h-8zm24 0h8v8h-8zm8 0h8v8h-8zm32 0h8v8h-8zm16 0h8v8h-8zm16 0h8v8h-8zm8 0h8v8h-8zm32 0h8v8h-8zm16 0h8v8h-8zm-440 8h8v8h-8zm8 0h8v8h-8zm8 0h8v8h-8zm8 0h8v8h-8zm8 0h8v8h-8zm16 0h8v8h-8zm8 0h8v8h-8zm24 0h8v8h-8zm16 0h8v8h-8zm16 0h8v8h-8zm8 0h8v8h-8zm24 0h8v8h-8zm32 0h8v8h-8zm8 0h8v8h-8zm8 0h8v8h-8zm40 0h8v8h-8zm8 0h8v8h-8zm16 0h8v8h-8zm16 0h8v8h-8zm48 0h8v8h-8zm16 0h8v8h-8zm24 0h8v8h-8zm8 0h8v8h-8zm16 0h8v8h-8zm8 0h8v8h-8zm8 0h8v8h-8zm8 0h8v8h-8zm16 0h8v8h-8zm8 0h8v8h-8zm-432 8h8v8h-8zm8 0h8v8h-8zm8 0h8v8h-8zm24 0h8v8h-8zm8 0h8v8h-8zm8 0h8v8h-8zm40 0h8v8h-8zm8 0h8v8h-8zm8 0h8v8h-8zm24 0h8v8h-8zm8 0h8v8h-8zm24 0h8v8h-8zm8 0h8v8h-8zm16 0h8v8h-8zm8 0h8v8h-8zm16 0h8v8h-8zm16 0h8v8h-8zm8 0h8v8h-8zm48 0h8v8h-8zm16 0h8v8h-8zm8 0h8v8h-8zm8 0h8v8h-8zm8 0h8v8h-8zm16 0h8v8h-8zm40 0h8v8h-8zm16 0h8v8h-8zm16 0h8v8h-8zm16 0h8v8h-8zm8 0h8v8h-8zm-448 8h8v8h-8zm24 0h8v8h-8zm32 0h8v8h-8zm16 0h8v8h-8zm8 0h8v8h-8zm32 0h8v8h-8zm8 0h8v8h-8zm40 0h8v8h-8zm8 0h8v8h-8zm32 0h8v8h-8zm16 0h8v8h-8zm16 0h8v8h-8zm24 0h8v8h-8zm8 0h8v8h-8zm56 0h8v8h-8zm32 0h8v8h-8zm32 0h8v8h-8zm8 0h8v8h-8zm16 0h8v8h-8zm8 0h8v8h-8zm8 0h8v8h-8zm8 0h8v8h-8zm-432 8h8v8h-8zm16 0h8v8h-8zm16 0h8v8h-8zm16 0h8v8h-8zm24 0h8v8h-8zm8 0h8v8h-8zm8 0h8v8h-8zm8 0h8v8h-8zm8 0h8v8h-8zm8 0h8v8h-8zm24 0h8v8h-8zm16 0h8v8h-8zm16 0h8v8h-8zm8 0h8v8h-8zm8 0h8v8h-8zm8 0h8v8h-8zm40 0h8v8h-8zm16 0h8v8h-8zm8 0h8v8h-8zm16 0h8v8h-8zm8 0h8v8h-8zm24 0h8v8h-8zm16 0h8v8h-8zm8 0h8v8h-8zm24 0h8v8h-8zm16 0h8v8h-8zm8 0h8v8h-8zm24 0h8v8h-8zm16 0h8v8h-8zm32 0h8v8h-8zm-448 8h8v8h-8zm24 0h8v8h-8zm8 0h8v8h-8zm8 0h8v8h-8zm16 0h8v8h-8zm8 0h8v8h-8zm16 0h8v8h-8zm24 0h8v8h-8zm8 0h8v8h-8zm8 0h8v8h-8zm8 0h8v8h-8zm16 0h8v8h-8zm24 0h8v8h-8zm48 0h8v8h-8zm8 0h8v8h-8zm8 0h8v8h-8zm16 0h8v8h-8zm24 0h8v8h-8zm8 0h8v8h-8zm16 0h8v8h-8zm16 0h8v8h-8zm8 0h8v8h-8zm8 0h8v8h-8zm16 0h8v8h-8zm16 0h8v8h-8zm48 0h8v8h-8zm8 0h8v8h-8zm8 0h8v8h-8zm16 0h8v8h-8zm8 0h8v8h-8zm-432 8h8v8h-8zm8 0h8v8h-8zm8 0h8v8h-8zm8 0h8v8h-8zm8 0h8v8h-8zm8 0h8v8h-8zm8 0h8v8h-8zm8 0h8v8h-8zm24 0h8v8h-8zm8 0h8v8h-8zm24 0h8v8h-8zm8 0h8v8h-8zm16 0h8v8h-8zm8 0h8v8h-8zm16 0h8v8h-8zm72 0h8v8h-8zm8 0h8v8h-8zm16 0h8v8h-8zm16 0h8v8h-8zm32 0h8v8h-8zm8 0h8v8h-8zm8 0h8v8h-8zm40 0h8v8h-8zm8 0h8v8h-8zm16 0h8v8h-8zm8 0h8v8h-8zm8 0h8v8h-8zm8 0h8v8h-8zm-424 8h8v8h-8zm8 0h8v8h-8zm8 0h8v8h-8zm16 0h8v8h-8zm8 0h8v8h-8zm32 0h8v8h-8zm8 0h8v8h-8zm24 0h8v8h-8zm8 0h8v8h-8zm8 0h8v8h-8zm24 0h8v8h-8zm8 0h8v8h-8zm40 0h8v8h-8zm16 0h8v8h-8zm8 0h8v8h-8zm8 0h8v8h-8zm48 0h8v8h-8zm8 0h8v8h-8zm8 0h8v8h-8zm16 0h8v8h-8zm8 0h8v8h-8zm48 0h8v8h-8zm8 0h8v8h-8zm8 0h8v8h-8zm8 0h8v8h-8zm32 0h8v8h-8zm24 0h8v8h-8zm8 0h8v8h-8zm-432 8h8v8h-8zm16 0h8v8h-8zm8 0h8v8h-8zm8 0h8v8h-8zm8 0h8v8h-8zm8 0h8v8h-8zm8 0h8v8h-8zm24 0h8v8h-8zm8 0h8v8h-8zm16 0h8v8h-8zm8 0h8v8h-8zm8 0h8v8h-8zm8 0h8v8h-8zm8 0h8v8h-8zm8 0h8v8h-8zm16 0h8v8h-8zm16 0h8v8h-8zm16 0h8v8h-8zm8 0h8v8h-8zm8 0h8v8h-8zm8 0h8v8h-8zm8 0h8v8h-8zm16 0h8v8h-8zm8 0h8v8h-8zm16 0h8v8h-8zm16 0h8v8h-8zm64 0h8v8h-8zm8 0h8v8h-8zm16 0h8v8h-8zm8 0h8v8h-8zm8 0h8v8h-8zm8 0h8v8h-8zm8 0h8v8h-8zm16 0h8v8h-8zm8 0h8v8h-8zm-440 8h8v8h-8zm8 0h8v8h-8zm16 0h8v8h-8zm8 0h8v8h-8zm32 0h8v8h-8zm8 0h8v8h-8zm16 0h8v8h-8zm8 0h8v8h-8zm56 0h8v8h-8zm16 0h8v8h-8zm8 0h8v8h-8zm8 0h8v8h-8zm8 0h8v8h-8zm16 0h8v8h-8zm32 0h8v8h-8zm8 0h8v8h-8zm24 0h8v8h-8zm24 0h8v8h-8zm24 0h8v8h-8zm24 0h8v8h-8zm16 0h8v8h-8zm16 0h8v8h-8zm8 0h8v8h-8zm32 0h8v8h-8zm8 0h8v8h-8zm8 0h8v8h-8zm16 0h8v8h-8zm-448 8h8v8h-8zm8 0h8v8h-8zm24 0h8v8h-8zm16 0h8v8h-8zm16 0h8v8h-8zm16 0h8v8h-8zm8 0h8v8h-8zm8 0h8v8h-8zm8 0h8v8h-8zm8 0h8v8h-8zm16 0h8v8h-8zm8 0h8v8h-8zm8 0h8v8h-8zm8 0h8v8h-8zm40 0h8v8h-8zm8 0h8v8h-8zm8 0h8v8h-8zm16 0h8v8h-8zm16 0h8v8h-8zm8 0h8v8h-8zm8 0h8v8h-8zm16 0h8v8h-8zm16 0h8v8h-8zm32 0h8v8h-8zm8 0h8v8h-8zm8 0h8v8h-8zm8 0h8v8h-8zm40 0h8v8h-8zm16 0h8v8h-8zm16 0h8v8h-8zm24 0h8v8h-8zm8 0h8v8h-8zm-448 8h8v8h-8zm8 0h8v8h-8zm24 0h8v8h-8zm32 0h8v8h-8zm24 0h8v8h-8zm16 0h8v8h-8zm16 0h8v8h-8zm24 0h8v8h-8zm8 0h8v8h-8zm16 0h8v8h-8zm16 0h8v8h-8zm16 0h8v8h-8zm8 0h8v8h-8zm32 0h8v8h-8zm8 0h8v8h-8zm16 0h8v8h-8zm32 0h8v8h-8zm16 0h8v8h-8zm16 0h8v8h-8zm24 0h8v8h-8zm24 0h8v8h-8zm8 0h8v8h-8zm32 0h8v8h-8zm32 0h8v8h-8zm-448 8h8v8h-8zm16 0h8v8h-8zm16 0h8v8h-8zm8 0h8v8h-8zm8 0h8v8h-8zm8 0h8v8h-8zm8 0h8v8h-8zm16 0h8v8h-8zm8 0h8v8h-8zm8 0h8v8h-8zm16 0h8v8h-8zm8 0h8v8h-8zm8 0h8v8h-8zm8 0h8v8h-8zm8 0h8v8h-8zm8 0h8v8h-8zm32 0h8v8h-8zm24 0h8v8h-8zm8 0h8v8h-8zm8 0h8v8h-8zm8 0h8v8h-8zm8 0h8v8h-8zm16 0h8v8h-8zm8 0h8v8h-8zm8 0h8v8h-8zm8 0h8v8h-8zm8 0h8v8h-8zm8 0h8v8h-8zm16 0h8v8h-8zm16 0h8v8h-8zm24 0h8v8h-8zm8 0h8v8h-8zm8 0h8v8h-8zm8 0h8v8h-8zm8 0h8v8h-8zm8 0h8v8h-8zm8 0h8v8h-8zm8 0h8v8h-8zm8 0h8v8h-8zm8 0h8v8h-8zm16 0h8v8h-8zm8 0h8v8h-8zm-448 8h8v8h-8zm8 0h8v8h-8zm8 0h8v8h-8zm16 0h8v8h-8zm8 0h8v8h-8zm24 0h8v8h-8zm8 0h8v8h-8zm8 0h8v8h-8zm16 0h8v8h-8zm8 0h8v8h-8zm8 0h8v8h-8zm16 0h8v8h-8zm8 0h8v8h-8zm8 0h8v8h-8zm8 0h8v8h-8zm16 0h8v8h-8zm8 0h8v8h-8zm24 0h8v8h-8zm8 0h8v8h-8zm8 0h8v8h-8zm16 0h8v8h-8zm32 0h8v8h-8zm16 0h8v8h-8zm8 0h8v8h-8zm8 0h8v8h-8zm8 0h8v8h-8zm8 0h8v8h-8zm8 0h8v8h-8zm8 0h8v8h-8zm8 0h8v8h-8zm40 0h8v8h-8zm8 0h8v8h-8zm16 0h8v8h-8zm24 0h8v8h-8zm8 0h8v8h-8zm-424 8h8v8h-8zm8 0h8v8h-8zm8 0h8v8h-8zm8 0h8v8h-8zm8 0h8v8h-8zm8 0h8v8h-8zm16 0h8v8h-8zm56 0h8v8h-8zm8 0h8v8h-8zm16 0h8v8h-8zm8 0h8v8h-8zm24 0h8v8h-8zm8 0h8v8h-8zm16 0h8v8h-8zm8 0h8v8h-8zm40 0h8v8h-8zm24 0h8v8h-8zm8 0h8v8h-8zm8 0h8v8h-8zm32 0h8v8h-8zm8 0h8v8h-8zm8 0h8v8h-8zm24 0h8v8h-8zm32 0h8v8h-8zm16 0h8v8h-8zm8 0h8v8h-8zm8 0h8v8h-8zm8 0h8v8h-8zm-432 8h8v8h-8zm24 0h8v8h-8zm48 0h8v8h-8zm8 0h8v8h-8zm24 0h8v8h-8zm8 0h8v8h-8zm8 0h8v8h-8zm8 0h8v8h-8zm16 0h8v8h-8zm24 0h8v8h-8zm24 0h8v8h-8zm8 0h8v8h-8zm8 0h8v8h-8zm8 0h8v8h-8zm8 0h8v8h-8zm32 0h8v8h-8zm8 0h8v8h-8zm24 0h8v8h-8zm64 0h8v8h-8zm32 0h8v8h-8zm24 0h8v8h-8zm24 0h8v8h-8zm16 0h8v8h-8zm-440 8h8v8h-8zm32 0h8v8h-8zm8 0h8v8h-8zm24 0h8v8h-8zm8 0h8v8h-8zm16 0h8v8h-8zm8 0h8v8h-8zm8 0h8v8h-8zm8 0h8v8h-8zm8 0h8v8h-8zm8 0h8v8h-8zm16 0h8v8h-8zm80 0h8v8h-8zm32 0h8v8h-8zm48 0h8v8h-8zm64 0h8v8h-8zm8 0h8v8h-8zm16 0h8v8h-8zm8 0h8v8h-8zm24 0h8v8h-8zm8 0h8v8h-8zm8 0h8v8h-8zm-432 8h8v8h-8zm16 0h8v8h-8zm24 0h8v8h-8zm8 0h8v8h-8zm16 0h8v8h-8zm24 0h8v8h-8zm24 0h8v8h-8zm48 0h8v8h-8zm24 0h8v8h-8zm8 0h8v8h-8zm16 0h8v8h-8zm32 0h8v8h-8zm8 0h8v8h-8zm8 0h8v8h-8zm16 0h8v8h-8zm40 0h8v8h-8zm24 0h8v8h-8zm8 0h8v8h-8zm8 0h8v8h-8zm24 0h8v8h-8zm24 0h8v8h-8zm8 0h8v8h-8zm8 0h8v8h-8zm-432 8h8v8h-8zm8 0h8v8h-8zm16 0h8v8h-8zm16 0h8v8h-8zm8 0h8v8h-8zm8 0h8v8h-8zm8 0h8v8h-8zm24 0h8v8h-8zm24 0h8v8h-8zm16 0h8v8h-8zm16 0h8v8h-8zm16 0h8v8h-8zm8 0h8v8h-8zm8 0h8v8h-8zm8 0h8v8h-8zm8 0h8v8h-8zm24 0h8v8h-8zm24 0h8v8h-8zm8 0h8v8h-8zm16 0h8v8h-8zm8 0h8v8h-8zm8 0h8v8h-8zm24 0h8v8h-8zm8 0h8v8h-8zm24 0h8v8h-8zm16 0h8v8h-8zm16 0h8v8h-8zm16 0h8v8h-8zm8 0h8v8h-8zm40 0h8v8h-8zm-416 8h8v8h-8zm40 0h8v8h-8zm16 0h8v8h-8zm8 0h8v8h-8zm40 0h8v8h-8zm16 0h8v8h-8zm8 0h8v8h-8zm48 0h8v8h-8zm24 0h8v8h-8zm8 0h8v8h-8zm8 0h8v8h-8zm88 0h8v8h-8zm8 0h8v8h-8zm16 0h8v8h-8zm16 0h8v8h-8zm24 0h8v8h-8zm16 0h8v8h-8zm24 0h8v8h-8zm8 0h8v8h-8zm16 0h8v8h-8zm-440 8h8v8h-8zm8 0h8v8h-8zm32 0h8v8h-8zm8 0h8v8h-8zm8 0h8v8h-8zm16 0h8v8h-8zm8 0h8v8h-8zm8 0h8v8h-8zm8 0h8v8h-8zm24 0h8v8h-8zm16 0h8v8h-8zm8 0h8v8h-8zm8 0h8v8h-8zm16 0h8v8h-8zm24 0h8v8h-8zm40 0h8v8h-8zm24 0h8v8h-8zm8 0h8v8h-8zm16 0h8v8h-8zm8 0h8v8h-8zm16 0h8v8h-8zm24 0h8v8h-8zm8 0h8v8h-8zm16 0h8v8h-8zm8 0h8v8h-8zm24 0h8v8h-8zm8 0h8v8h-8zm24 0h8v8h-8zm8 0h8v8h-8zm-424 8h8v8h-8zm32 0h8v8h-8zm16 0h8v8h-8zm24 0h8v8h-8zm40 0h8v8h-8zm8 0h8v8h-8zm16 0h8v8h-8zm8 0h8v8h-8zm16 0h8v8h-8zm40 0h8v8h-8zm16 0h8v8h-8zm24 0h8v8h-8zm24 0h8v8h-8zm8 0h8v8h-8zm16 0h8v8h-8zm40 0h8v8h-8zm24 0h8v8h-8zm8 0h8v8h-8zm8 0h8v8h-8zm8 0h8v8h-8zm8 0h8v8h-8zm32 0h8v8h-8zm16 0h8v8h-8zm-440 8h8v8h-8zm8 0h8v8h-8zm32 0h8v8h-8zm8 0h8v8h-8zm32 0h8v8h-8zm16 0h8v8h-8zm24 0h8v8h-8zm8 0h8v8h-8zm8 0h8v8h-8zm8 0h8v8h-8zm16 0h8v8h-8zm16 0h8v8h-8zm24 0h8v8h-8zm8 0h8v8h-8zm8 0h8v8h-8zm16 0h8v8h-8zm8 0h8v8h-8zm8 0h8v8h-8zm8 0h8v8h-8zm8 0h8v8h-8zm16 0h8v8h-8zm8 0h8v8h-8zm16 0h8v8h-8zm8 0h8v8h-8zm8 0h8v8h-8zm8 0h8v8h-8zm8 0h8v8h-8zm16 0h8v8h-8zm16 0h8v8h-8zm16 0h8v8h-8zm8 0h8v8h-8zm8 0h8v8h-8zm16 0h8v8h-8zm-392 8h8v8h-8zm8 0h8v8h-8zm8 0h8v8h-8zm32 0h8v8h-8zm8 0h8v8h-8zm16 0h8v8h-8zm16 0h8v8h-8zm8 0h8v8h-8zm32 0h8v8h-8zm8 0h8v8h-8zm8 0h8v8h-8zm40 0h8v8h-8zm8 0h8v8h-8zm16 0h8v8h-8zm16 0h8v8h-8zm8 0h8v8h-8zm24 0h8v8h-8zm8 0h8v8h-8zm8 0h8v8h-8zm8 0h8v8h-8zm8 0h8v8h-8zm16 0h8v8h-8zm8 0h8v8h-8zm16 0h8v8h-8zm16 0h8v8h-8zm8 0h8v8h-8zm24 0h8v8h-8zm48 0h8v8h-8zm-432 8h8v8h-8zm32 0h8v8h-8zm16 0h8v8h-8zm8 0h8v8h-8zm16 0h8v8h-8zm24 0h8v8h-8zm32 0h8v8h-8zm16 0h8v8h-8zm24 0h8v8h-8zm16 0h8v8h-8zm24 0h8v8h-8zm24 0h8v8h-8zm40 0h8v8h-8zm16 0h8v8h-8zm8 0h8v8h-8zm8 0h8v8h-8zm16 0h8v8h-8zm24 0h8v8h-8zm24 0h8v8h-8zm8 0h8v8h-8zm16 0h8v8h-8zm16 0h8v8h-8zm8 0h8v8h-8zm-432 8h8v8h-8zm16 0h8v8h-8zm8 0h8v8h-8zm8 0h8v8h-8zm24 0h8v8h-8zm16 0h8v8h-8zm56 0h8v8h-8zm8 0h8v8h-8zm8 0h8v8h-8zm8 0h8v8h-8zm8 0h8v8h-8zm8 0h8v8h-8zm8 0h8v8h-8zm8 0h8v8h-8zm24 0h8v8h-8zm16 0h8v8h-8zm32 0h8v8h-8zm24 0h8v8h-8zm8 0h8v8h-8zm8 0h8v8h-8zm8 0h8v8h-8zm8 0h8v8h-8zm32 0h8v8h-8zm24 0h8v8h-8zm8 0h8v8h-8zm8 0h8v8h-8zm16 0h8v8h-8zm48 0h8v8h-8zm-448 8h8v8h-8zm8 0h8v8h-8zm8 0h8v8h-8zm8 0h8v8h-8zm16 0h8v8h-8zm8 0h8v8h-8zm32 0h8v8h-8zm40 0h8v8h-8zm8 0h8v8h-8zm8 0h8v8h-8zm16 0h8v8h-8zm16 0h8v8h-8zm16 0h8v8h-8zm24 0h8v8h-8zm16 0h8v8h-8zm24 0h8v8h-8zm16 0h8v8h-8zm8 0h8v8h-8zm8 0h8v8h-8zm8 0h8v8h-8zm24 0h8v8h-8zm8 0h8v8h-8zm40 0h8v8h-8zm8 0h8v8h-8zm16 0h8v8h-8zm24 0h8v8h-8zm32 0h8v8h-8zm-416 8h8v8h-8zm8 0h8v8h-8zm8 0h8v8h-8zm40 0h8v8h-8zm16 0h8v8h-8zm8 0h8v8h-8zm8 0h8v8h-8zm8 0h8v8h-8zm24 0h8v8h-8zm8 0h8v8h-8zm24 0h8v8h-8zm16 0h8v8h-8zm8 0h8v8h-8zm32 0h8v8h-8zm8 0h8v8h-8zm24 0h8v8h-8zm32 0h8v8h-8zm16 0h8v8h-8zm8 0h8v8h-8zm8 0h8v8h-8zm8 0h8v8h-8zm8 0h8v8h-8zm48 0h8v8h-8zm40 0h8v8h-8zm8 0h8v8h-8zm8 0h8v8h-8zm-448 8h8v8h-8zm16 0h8v8h-8zm24 0h8v8h-8zm8 0h8v8h-8zm32 0h8v8h-8zm16 0h8v8h-8zm32 0h8v8h-8zm8 0h8v8h-8zm16 0h8v8h-8zm8 0h8v8h-8zm8 0h8v8h-8zm8 0h8v8h-8zm8 0h8v8h-8zm8 0h8v8h-8zm16 0h8v8h-8zm24 0h8v8h-8zm24 0h8v8h-8zm40 0h8v8h-8zm56 0h8v8h-8zm8 0h8v8h-8zm40 0h8v8h-8zm8 0h8v8h-8zm8 0h8v8h-8zm8 0h8v8h-8zm8 0h8v8h-8zm8 0h8v8h-8zm8 0h8v8h-8zm-448 8h8v8h-8zm8 0h8v8h-8zm8 0h8v8h-8zm8 0h8v8h-8zm8 0h8v8h-8zm32 0h8v8h-8zm8 0h8v8h-8zm24 0h8v8h-8zm16 0h8v8h-8zm8 0h8v8h-8zm16 0h8v8h-8zm8 0h8v8h-8zm16 0h8v8h-8zm16 0h8v8h-8zm8 0h8v8h-8zm16 0h8v8h-8zm16 0h8v8h-8zm8 0h8v8h-8zm8 0h8v8h-8zm16 0h8v8h-8zm40 0h8v8h-8zm32 0h8v8h-8zm16 0h8v8h-8zm32 0h8v8h-8zm24 0h8v8h-8zm8 0h8v8h-8zm16 0h8v8h-8zm24 0h8v8h-8zm8 0h8v8h-8zm-400 8h8v8h-8zm24 0h8v8h-8zm8 0h8v8h-8zm16 0h8v8h-8zm8 0h8v8h-8zm8 0h8v8h-8zm8 0h8v8h-8zm24 0h8v8h-8zm16 0h8v8h-8zm8 0h8v8h-8zm16 0h8v8h-8zm8 0h8v8h-8zm16 0h8v8h-8zm8 0h8v8h-8zm8 0h8v8h-8zm8 0h8v8h-8zm8 0h8v8h-8zm56 0h8v8h-8zm8 0h8v8h-8zm16 0h8v8h-8zm24 0h8v8h-8zm8 0h8v8h-8zm8 0h8v8h-8zm8 0h8v8h-8zm16 0h8v8h-8zm8 0h8v8h-8zm8 0h8v8h-8zm8 0h8v8h-8zm8 0h8v8h-8zm16 0h8v8h-8zm8 0h8v8h-8zm-376 8h8v8h-8zm8 0h8v8h-8zm16 0h8v8h-8zm24 0h8v8h-8zm72 0h8v8h-8zm16 0h8v8h-8zm8 0h8v8h-8zm32 0h8v8h-8zm16 0h8v8h-8zm16 0h8v8h-8zm8 0h8v8h-8zm24 0h8v8h-8zm24 0h8v8h-8zm8 0h8v8h-8zm16 0h8v8h-8zm32 0h8v8h-8zm32 0h8v8h-8zm24 0h8v8h-8zm-440 8h8v8h-8zm8 0h8v8h-8zm8 0h8v8h-8zm8 0h8v8h-8zm8 0h8v8h-8zm8 0h8v8h-8zm8 0h8v8h-8zm16 0h8v8h-8zm8 0h8v8h-8zm8 0h8v8h-8zm8 0h8v8h-8zm8 0h8v8h-8zm16 0h8v8h-8zm16 0h8v8h-8zm8 0h8v8h-8zm8 0h8v8h-8zm16 0h8v8h-8zm8 0h8v8h-8zm8 0h8v8h-8zm32 0h8v8h-8zm16 0h8v8h-8zm16 0h8v8h-8zm8 0h8v8h-8zm48 0h8v8h-8zm8 0h8v8h-8zm8 0h8v8h-8zm8 0h8v8h-8zm8 0h8v8h-8zm16 0h8v8h-8zm8 0h8v8h-8zm16 0h8v8h-8zm8 0h8v8h-8zm8 0h8v8h-8zm16 0h8v8h-8zm16 0h8v8h-8zm24 0h8v8h-8zm-440 8h8v8h-8zm48 0h8v8h-8zm16 0h8v8h-8zm8 0h8v8h-8zm16 0h8v8h-8zm24 0h8v8h-8zm8 0h8v8h-8zm8 0h8v8h-8zm24 0h8v8h-8zm8 0h8v8h-8zm8 0h8v8h-8zm8 0h8v8h-8zm8 0h8v8h-8zm8 0h8v8h-8zm16 0h8v8h-8zm32 0h8v8h-8zm16 0h8v8h-8zm24 0h8v8h-8zm8 0h8v8h-8zm8 0h8v8h-8zm16 0h8v8h-8zm48 0h8v8h-8zm24 0h8v8h-8zm32 0h8v8h-8zm32 0h8v8h-8zm-448 8h8v8h-8zm16 0h8v8h-8zm8 0h8v8h-8zm8 0h8v8h-8zm16 0h8v8h-8zm40 0h8v8h-8zm8 0h8v8h-8zm8 0h8v8h-8zm8 0h8v8h-8zm16 0h8v8h-8zm8 0h8v8h-8zm8 0h8v8h-8zm16 0h8v8h-8zm16 0h8v8h-8zm8 0h8v8h-8zm24 0h8v8h-8zm8 0h8v8h-8zm8 0h8v8h-8zm8 0h8v8h-8zm8 0h8v8h-8zm16 0h8v8h-8zm8 0h8v8h-8zm8 0h8v8h-8zm16 0h8v8h-8zm16 0h8v8h-8zm24 0h8v8h-8zm16 0h8v8h-8zm8 0h8v8h-8zm8 0h8v8h-8zm8 0h8v8h-8zm8 0h8v8h-8zm8 0h8v8h-8zm8 0h8v8h-8zm8 0h8v8h-8zm8 0h8v8h-8zm8 0h8v8h-8zm16 0h8v8h-8zm8 0h8v8h-8zm8 0h8v8h-8zm-448 8h8v8h-8zm16 0h8v8h-8zm8 0h8v8h-8zm8 0h8v8h-8zm16 0h8v8h-8zm16 0h8v8h-8zm32 0h8v8h-8zm16 0h8v8h-8zm56 0h8v8h-8zm16 0h8v8h-8zm8 0h8v8h-8zm8 0h8v8h-8zm32 0h8v8h-8zm24 0h8v8h-8zm8 0h8v8h-8zm8 0h8v8h-8zm24 0h8v8h-8zm8 0h8v8h-8zm24 0h8v8h-8zm8 0h8v8h-8zm8 0h8v8h-8zm8 0h8v8h-8zm16 0h8v8h-8zm16 0h8v8h-8zm32 0h8v8h-8zm8 0h8v8h-8zm8 0h8v8h-8zm8 0h8v8h-8zm-440 8h8v8h-8zm16 0h8v8h-8zm8 0h8v8h-8zm8 0h8v8h-8zm16 0h8v8h-8zm16 0h8v8h-8zm32 0h8v8h-8zm24 0h8v8h-8zm8 0h8v8h-8zm16 0h8v8h-8zm8 0h8v8h-8zm56 0h8v8h-8zm8 0h8v8h-8zm40 0h8v8h-8zm16 0h8v8h-8zm24 0h8v8h-8zm8 0h8v8h-8zm8 0h8v8h-8zm16 0h8v8h-8zm8 0h8v8h-8zm16 0h8v8h-8zm24 0h8v8h-8zm8 0h8v8h-8zm16 0h8v8h-8zm24 0h8v8h-8zm8 0h8v8h-8zm-432 8h8v8h-8zm48 0h8v8h-8zm24 0h8v8h-8zm16 0h8v8h-8zm40 0h8v8h-8zm16 0h8v8h-8zm16 0h8v8h-8zm8 0h8v8h-8zm24 0h8v8h-8zm8 0h8v8h-8zm8 0h8v8h-8zm56 0h8v8h-8zm16 0h8v8h-8zm24 0h8v8h-8zm16 0h8v8h-8zm8 0h8v8h-8zm8 0h8v8h-8zm8 0h8v8h-8zm32 0h8v8h-8zm16 0h8v8h-8zm16 0h8v8h-8zm8 0h8v8h-8zm8 0h8v8h-8zm8 0h8v8h-8zm-432 8h8v8h-8zm8 0h8v8h-8zm8 0h8v8h-8zm8 0h8v8h-8zm8 0h8v8h-8zm8 0h8v8h-8zm8 0h8v8h-8zm16 0h8v8h-8zm48 0h8v8h-8zm16 0h8v8h-8zm16 0h8v8h-8zm16 0h8v8h-8zm24 0h8v8h-8zm32 0h8v8h-8zm8 0h8v8h-8zm8 0h8v8h-8zm16 0h8v8h-8zm16 0h8v8h-8zm16 0h8v8h-8zm24 0h8v8h-8zm8 0h8v8h-8zm8 0h8v8h-8zm24 0h8v8h-8zm8 0h8v8h-8zm8 0h8v8h-8zm80 0h8v8h-8z"/></svg>