<svg xmlns="http://www.w3.org/2000/svg" id="Layer_1" width="1072.9" height="450.2"><style id="style2">.st0{fill:#FFC71C;} .st1{opacity:0.28;} .st2{fill:#434343;} .st3{fill:#FFFFFF;}</style><path id="path4" fill="#ffc71c" d="M49.2 396V97h-6.7c-14 0-24.7-4-31.8-12C3.7 76.6 0 67 0 55.6c0-11 3.8-20.5 11.5-28.8 7.6-8.4 18-12.5 31-12.5h59c13 0 23.3 4 30.8 11.8 7.4 8 11.2 18 11.2 31v339c0 15-4.3 26-13 34s-20 13-33.8 13c-13.7 0-25-4-33.8-12-9-8-14-20-14-34zm291 52c-39.5 0-71.7-11-96.6-32.8-24-21-42-49-53-82-10-33-16-68-16-104s6-70 16-104c11-33 29-61 54-83s57-32 97-32c31 0 57 7 78 20s39 30 52 52 23 45 28 71c6 26 9 52 9 78s-3 52-8 77c-5 26-15 50-28 71-12 22-30 39-51 52s-48 19-78 19zm-.2-81.3c19.4 0 34-8 44.2-23.6 10.2-15 16.6-33 19.6-54s4.4-40 4.4-60c0-36-4.4-68-13.3-96-9-28-28-41-55-41-28 0-46 14-55 43s-14 60-14 96c0 35 4 66 13 95s27 43 54 43z" class="st0"/><path id="path6" fill="#ffc71c" d="M574.3 443.7c-39.5 0-71.7-11-96.6-32.7-25-22-42.6-50-53.3-83-11-34-16-68-16-104s5-71 16-104c10-34 28-61 53-83s57-33 96-33c30 0 56 6 77 19s38 30 51 51c12 21 22 45 28 70 5 25 8 51 8 78 0 26-3 51-9 77-6 25-15 49-28 71s-30 39-52 52-47 20-77 20zm-.2-81.2c20 0 34-8 45-23.6 10-16 17-34 20-55s5-41 5-60c0-37-4-69-13-97s-27-42-55-42c-27.3 0-46 14-54.4 42-9 28-13.5 60-13.5 95 0 34 4.4 66 13.4 95 8 29 27 43 54 43z" class="st0"/><path id="path8" fill="#434343" d="M408 228.5s3 108 51 163c0 0-33 42.5-79.3 52.3 0 0-25.3-68.8-.3-91.3 0 0 33-43.6 28-124zm98-4.7s-2-108-49-163.5c0 0 33.2-42.2 80-51.4 0 0 24.3 69-1 91 0 0-34 44-30 124z" class="st1 st2" opacity=".3"/><path id="path10" fill="#ffc71c" d="M582 267.3h491v177.2H582z" class="st0"/><path id="path12" fill="#fff" d="M680.8 388v-61.5c0-2.6.8-4.7 2.4-6.3 1.6-1 3.8-2 6.6-2H710c5.6 0 10.6 1 15 4 4.7 3 8.3 6 10.8 10s3.8 9 3.8 14c0 4 0 8-2 11-1 4-3 6-6 9-2 2-5 4-9 5-3 2-7 2-11 2h-13v18c0 3 0 5-2 6-1 2-3 2-6 2s-4-1-6-2c-1-1-2-3-2-6zm17.2-55.6v23.2h11.7c3.5 0 6.4-1 8.6-3.3 2.2-2.2 3.3-5 3.3-8.3 0-3 0-5-1-6-1-2-2-4-4-5s-4-2-6-2h-12zm49.5 52.7l23.3-59c1-2 2.7-5 5-6 2-1 4.5-2 7.3-2 3 0 6 1 8 3s4 4 5 7l22 59.8c0 2 1 3 1 4.7 0 1.3-1 2.5-2 3.6-1 1-2 2-3 2.6-1 .7-3 1-4 1-5 0-7-2-9-5.6l-4-10h-32l-3 10c-2 4-4 6-9 6-3 0-5 0-6-2-2-1-3-3-3-5 0-1 0-2 1-4zm35.5-51l-11 32h22l-11-32zm74-17c2.6 0 5.7 1 9.3 1 3 1 6 2 9 4 2 2 4 4 4 7 0 2-1 4-2 6-2 2-4 3-6 3-1 0-2 0-4-.4l-4-1.2c-1-.3-3-.6-4-1-1-.2-3-.3-4-.3-3 0-5 .8-7 2s-3 3-3 5c0 2.7 2 4.5 6 6l13 4c5 1 9 4 13 7 3 3 5 8 5 14 0 5-2 9-4 13s-6 7-11 9-10 3-15 3c-7 0-13-1-19-3s-9-5-9-10c0-2 0-4 2-6 1-2 3-3 5-3h3l5.5 1 5 1.8c1 .8 3 1 5 1s4-.2 6-1c2-1 3-2 4-3.3 1-1.6 1.5-3 1.5-5 0-3-1-5-3-5.6-2-1-7-2-14.3-4.7-7-2-12.3-5-16-7.2-3-3-5-7-5-13 0-5 1.5-9.2 4-13 2.7-4 6-7 10.6-9s9-3 14-3zm38.6 69l23.2-59c1-2 2.6-5 5-6 2-1 4.4-2 7.2-2 3 0 5.5 1 7.6 2.6 2 1.5 3.7 4 4.7 6.5l22.7 59c.4 2 1 3 1 5s-.7 3-1 4l-3 3c-1 1-2.8 1-4 1-4.5 0-7-2-8.6-5l-3.4-10h-32l-3.4 10c-1.3 4-4 6-8.3 6-2.4 0-4.4 0-6-2-1.7-1-2.5-3-2.5-5 0-1 0-2 .6-4zm35.4-52l-11 32h22l-10.5-32zm48.3 53v-61c0-2 .8-5 2.4-6 1.6-1 3.7-2 6.2-2 2 0 4 1 6 2 1 2 2 4 2 7v55h20c2 0 4 0 6 2 1 2 2 4 2 6s-1 4-2 5c-2 2-4 3-6 3h-28c-3 0-5-1-7-2-2-2-3-4-3-6z" class="st3"/><path id="path14" fill="#434343" d="M640 267l97.6.5s1-12.4 2-21c0 0-27 11.4-59 16.8-21 3-40 4-40 4z" class="st1 st2" opacity=".3"/><path id="path16" fill="#ffc71c" d="M742.7 4.7c0 2 1.4 3.4 3.6 3.4h30.2c7.5 0 14.2 5 15.6 12l33 166c2 9 11 16 20 16h140c2 0 4-1 4-3s-1-3-3-3H846c-6 0-11.7-4-13-10l-4-17h155.7c1.7 0 3-1 3.5-2.5l28.6-108c0-1 0-2-1-3s-2-1-3-1h-207L799 18c-2-10-12-18-23-18h-30c-2.3 0-3.7 1-3.7 3zM938 96v27h-67.5V96zm-67.5-7V58.8H938V89zm117.2 34H945V96h53.4l-8 28.6c-1-1-2-1.7-3-1.7zm-124.3 0h-44l-6-27h49v27zm-43 6.6h43V160h-37zm50 30.5v-30h67v30zm110 0h-36v-30h44l-9 31zm18-70h-56V59h62l-8 30.7zm-136-31v30h-50l-6-30zm1 169c-11 0-20 9-20 19s9 19 19 19 20-8 20-18-9-18.3-20-18.3zm0 31c-7 0-13-5-13-12 0-6 5-11 12-11s13 6 13 12c0 7-6 12-13 12zm105-12c0-10-9-18-20-18s-19 9-19 19 9 19 19 19 20-8.2 20-18.2zm-32 0c0-6 5-11 12-11s12 6 12 12c0 7-6 12-13 12s-12-5-12-12z" class="st0"/></svg>