<svg width="240" height="63" viewBox="0 0 240 63" fill="none" xmlns="http://www.w3.org/2000/svg">
<g clip-path="url(#clip0)">
<path d="M78 62.5399V60.3999H79.46V62.5399H78Z" fill="#045CB6"/>
<path d="M79.46 0V2H78V0H79.46Z" fill="#045CB6"/>
<path d="M175.86 46.0101V43.1301H194.97C195.539 43.1784 196.111 43.0849 196.634 42.858C197.158 42.6312 197.617 42.278 197.97 41.8301C198.343 41.3285 198.58 40.7397 198.66 40.1201C198.77 38.9401 198.66 37.7401 198.66 36.5601C198.59 36.5601 198.53 36.5001 198.51 36.5601C196.899 37.5616 195.014 38.0337 193.12 37.9101C188.95 37.9101 184.77 37.9101 180.59 37.9101C179.092 37.9151 177.642 37.3818 176.504 36.4071C175.366 35.4324 174.616 34.0814 174.39 32.6001C174.277 31.2932 174.254 29.9801 174.32 28.6701C174.273 27.3613 174.327 26.0507 174.48 24.7501C174.726 23.4239 175.411 22.2191 176.425 21.3301C177.439 20.4411 178.723 19.9197 180.07 19.8501C185.07 19.7601 189.99 19.7401 194.94 19.8501C196.741 19.9802 198.429 20.7728 199.679 22.0748C200.93 23.3768 201.653 25.0959 201.71 26.9001C201.77 31.2701 201.71 35.6401 201.71 40.0201C201.667 41.5978 201.022 43.0992 199.905 44.2152C198.789 45.3313 197.288 45.9772 195.71 46.0201C189.16 46.0901 182.6 46.0201 176.04 46.0201C175.98 46.0192 175.92 46.0158 175.86 46.0101ZM187.55 22.7701H180.78C180.335 22.7512 179.891 22.8226 179.474 22.9799C179.058 23.1373 178.677 23.3774 178.356 23.6857C178.034 23.994 177.779 24.3643 177.604 24.774C177.43 25.1838 177.34 25.6247 177.34 26.0701C177.34 27.9201 177.34 29.7701 177.34 31.6101C177.333 32.0566 177.417 32.5 177.586 32.9134C177.755 33.3268 178.006 33.7017 178.323 34.0157C178.641 34.3296 179.019 34.576 179.434 34.74C179.85 34.904 180.294 34.9823 180.74 34.9701C185.23 34.9701 189.74 34.9701 194.21 34.9701C194.814 34.9745 195.412 34.8568 195.969 34.6241C196.526 34.3915 197.031 34.0486 197.452 33.6162C197.873 33.1837 198.203 32.6706 198.421 32.1076C198.639 31.5447 198.741 30.9434 198.72 30.3401C198.72 29.3401 198.72 28.4001 198.72 27.4201C198.746 26.8 198.642 26.1814 198.416 25.6036C198.189 25.0258 197.845 24.5015 197.405 24.0641C196.965 23.6266 196.438 23.2857 195.859 23.0629C195.28 22.8401 194.66 22.7404 194.04 22.7701H187.55Z" fill="#045CB6"/>
<path d="M59.1202 27.2498C59.1202 26.0698 59.3602 24.7798 58.2802 23.7398C57.9128 23.3869 57.4784 23.1113 57.0026 22.9292C56.5268 22.7472 56.0194 22.6624 55.5102 22.6798H36.8402V19.7698C37.0402 19.7698 37.2302 19.7698 37.4102 19.7698C43.5302 19.7698 49.6502 19.7698 55.7702 19.7698C57.2298 19.7553 58.6496 20.2448 59.7901 21.1557C60.9306 22.0667 61.7218 23.3432 62.0302 24.7698C62.0861 25.1002 62.1129 25.4348 62.1102 25.7698C62.1102 27.9098 62.1102 30.0498 62.1102 32.1898C62.1565 33.6099 61.6423 34.9911 60.6787 36.0352C59.7151 37.0792 58.3794 37.7023 56.9602 37.7698C56.3402 37.8298 55.7002 37.8598 55.0702 37.8598C50.6302 37.8598 46.1802 37.8598 41.7402 37.8598C40.7317 37.8843 39.724 37.7835 38.7402 37.5598C35.9702 36.8698 34.5502 34.8398 34.6602 31.8998C34.7388 30.6879 35.2335 29.5402 36.0608 28.651C36.888 27.7617 37.9971 27.1855 39.2002 27.0198C39.8941 26.9033 40.5967 26.8464 41.3002 26.8498C46.0102 26.8498 50.7202 26.8498 55.4402 26.8498C56.6733 26.916 57.9018 27.0495 59.1202 27.2498V27.2498ZM48.4202 34.8698H55.5602C56.1185 34.8704 56.6751 34.8101 57.2202 34.6898C57.7858 34.6008 58.2966 34.3004 58.6493 33.8494C59.0019 33.3983 59.1703 32.8302 59.1202 32.2598C59.1637 31.7181 58.9984 31.1802 58.6582 30.7563C58.318 30.3324 57.8286 30.0547 57.2902 29.9798C56.8114 29.8466 56.3173 29.776 55.8202 29.7698C50.8902 29.7698 45.9602 29.7698 41.0302 29.7698C40.2821 29.7919 39.5453 29.9583 38.8602 30.2598C38.4695 30.4427 38.1484 30.7469 37.9448 31.1271C37.7411 31.5074 37.6659 31.9433 37.7302 32.3698C37.6817 32.7838 37.7685 33.2023 37.9776 33.5628C38.1867 33.9233 38.5069 34.2064 38.8902 34.3698C39.6324 34.652 40.4166 34.8075 41.2102 34.8298C43.6102 34.9098 46.0202 34.8698 48.4202 34.8698Z" fill="#045CB6"/>
<path d="M25.1202 27.2498C25.1202 26.0698 25.3602 24.7798 24.2802 23.7398C23.9128 23.3869 23.4784 23.1113 23.0026 22.9292C22.5268 22.7472 22.0194 22.6624 21.5102 22.6798H2.84024V19.7698C3.04024 19.7698 3.23024 19.7698 3.41024 19.7698C9.53024 19.7698 15.6502 19.7698 21.7702 19.7698C23.2298 19.7553 24.6496 20.2448 25.7901 21.1557C26.9306 22.0667 27.7218 23.3432 28.0302 24.7698C28.0861 25.1002 28.1129 25.4348 28.1102 25.7698C28.1102 27.9098 28.1102 30.0498 28.1102 32.1898C28.1565 33.6099 27.6423 34.9911 26.6787 36.0352C25.7151 37.0792 24.3794 37.7023 22.9602 37.7698C22.3402 37.8298 21.7002 37.8598 21.0702 37.8598C16.6302 37.8598 12.1802 37.8598 7.74023 37.8598C6.73168 37.8843 5.72398 37.7835 4.74023 37.5598C1.97023 36.8698 0.550237 34.8398 0.660237 31.8998C0.738761 30.6879 1.2335 29.5402 2.06077 28.651C2.88804 27.7617 3.99706 27.1855 5.20024 27.0198C5.89409 26.9033 6.59666 26.8464 7.30024 26.8498C12.0102 26.8498 16.7202 26.8498 21.4402 26.8498C22.6733 26.916 23.9018 27.0495 25.1202 27.2498V27.2498ZM14.4202 34.8698H21.5602C22.1185 34.8704 22.6751 34.8101 23.2202 34.6898C23.7858 34.6008 24.2966 34.3004 24.6493 33.8494C25.0019 33.3983 25.1703 32.8302 25.1202 32.2598C25.1637 31.7181 24.9984 31.1802 24.6582 30.7563C24.318 30.3324 23.8286 30.0547 23.2902 29.9798C22.8114 29.8466 22.3173 29.776 21.8202 29.7698C16.8902 29.7698 11.9602 29.7698 7.03024 29.7698C6.28209 29.7919 5.54526 29.9583 4.86024 30.2598C4.46953 30.4427 4.1484 30.7469 3.94475 31.1271C3.74111 31.5074 3.66586 31.9433 3.73024 32.3698C3.68174 32.7838 3.76852 33.2023 3.97761 33.5628C4.1867 33.9233 4.50687 34.2064 4.89024 34.3698C5.63236 34.652 6.4166 34.8075 7.21024 34.8298C9.61024 34.9098 12.0202 34.8698 14.4202 34.8698Z" fill="#045CB6"/>
<path d="M155.79 37.8502C153.41 37.8502 151.03 37.8502 148.65 37.8502C145.6 37.8502 143.01 36.1502 142.44 33.4402C141.804 30.3661 141.804 27.1943 142.44 24.1202C142.793 22.8425 143.56 21.7177 144.62 20.9217C145.68 20.1257 146.974 19.7032 148.3 19.7202C153.3 19.7202 158.3 19.7202 163.38 19.7202C165.025 19.7334 166.598 20.399 167.753 21.5708C168.908 22.7427 169.551 24.3249 169.54 25.9702C169.54 27.8436 169.54 29.7136 169.54 31.5802C169.571 33.1544 168.99 34.6793 167.919 35.8338C166.849 36.9883 165.372 37.6825 163.8 37.7702C161.14 37.9102 158.46 37.7702 155.8 37.7702L155.79 37.8502ZM155.79 34.8502C158.24 34.8502 160.69 34.8502 163.14 34.8502C163.584 34.87 164.028 34.7972 164.443 34.6365C164.857 34.4758 165.234 34.2306 165.549 33.9166C165.864 33.6026 166.11 33.2265 166.272 32.8122C166.434 32.398 166.508 31.9546 166.49 31.5102C166.49 29.7102 166.49 27.9202 166.49 26.1202C166.528 25.6567 166.464 25.1904 166.304 24.7539C166.143 24.3174 165.889 23.9211 165.56 23.5927C165.231 23.2643 164.834 23.0117 164.397 22.8524C163.96 22.693 163.493 22.6309 163.03 22.6702C158.23 22.6702 153.427 22.6702 148.62 22.6702C148.151 22.6342 147.68 22.7001 147.239 22.8632C146.798 23.0264 146.398 23.283 146.065 23.6155C145.733 23.948 145.476 24.3484 145.313 24.7894C145.15 25.2304 145.084 25.7014 145.12 26.1702C145.12 27.9002 145.12 29.6202 145.12 31.3402C145.08 31.8156 145.145 32.2939 145.309 32.7416C145.474 33.1894 145.735 33.5956 146.073 33.932C146.411 34.2683 146.819 34.5266 147.267 34.6887C147.716 34.8508 148.195 34.9127 148.67 34.8702L155.79 34.8502Z" fill="#045CB6"/>
<path d="M81.5697 28.8599L83.9197 25.7699C86.0731 22.8899 88.2164 20.0066 90.3497 17.1199C90.4732 16.9155 90.653 16.7511 90.8677 16.6464C91.0823 16.5418 91.3226 16.5013 91.5597 16.5299C92.4897 16.5299 93.4297 16.5299 94.5597 16.5299C94.3097 16.8699 94.1497 17.0999 93.9897 17.3299C90.4897 21.9966 86.9931 26.6899 83.4997 31.4099C83.2568 31.7585 83.0992 32.1593 83.0397 32.5799C82.9613 33.3695 82.6669 34.1222 82.1888 34.7555C81.7108 35.3887 81.0676 35.8781 80.3297 36.1699C79.9824 36.326 79.6747 36.5584 79.4297 36.8499C78.5997 37.8999 77.7797 38.9499 77.0297 40.0499C76.1456 41.2735 74.8811 42.1697 73.4337 42.5985C71.9863 43.0273 70.4376 42.9645 69.0297 42.4199C68.2649 42.1027 67.5172 41.7455 66.7897 41.3499L68.2397 38.7199L69.5097 39.3899C70.3503 39.872 71.3413 40.0203 72.2861 39.8054C73.231 39.5905 74.0604 39.0281 74.6097 38.2299C75.2097 37.4399 75.7997 36.6399 76.4297 35.7999L75.8897 35.3199C75.3324 34.807 74.9212 34.1553 74.6981 33.4315C74.475 32.7077 74.4479 31.9376 74.6197 31.1999C74.6668 30.8511 74.5889 30.4968 74.3997 30.1999C71.2297 25.9299 68.0297 21.6799 64.8397 17.4199L64.2197 16.5599C65.4897 16.5599 66.5897 16.5599 67.6997 16.5599C67.9197 16.5599 68.1697 16.8599 68.3297 17.0699C71.0197 20.6399 73.7097 24.1999 76.3297 27.7899C76.3793 27.8874 76.4479 27.9739 76.5314 28.0445C76.6149 28.1151 76.7117 28.1682 76.816 28.2008C76.9204 28.2334 77.0302 28.2448 77.139 28.2344C77.2479 28.2239 77.3535 28.1918 77.4497 28.1399C78.8297 27.6299 79.7697 27.8299 81.5697 28.8599ZM80.6797 32.1499C80.6777 31.7691 80.5631 31.3973 80.3503 31.0815C80.1375 30.7656 79.8359 30.5198 79.4837 30.375C79.1314 30.2301 78.7442 30.1927 78.3708 30.2675C77.9973 30.3423 77.6544 30.5259 77.385 30.7952C77.1157 31.0646 76.9321 31.4075 76.8573 31.781C76.7825 32.1544 76.8199 32.5416 76.9648 32.8939C77.1096 33.2461 77.3554 33.5477 77.6713 33.7605C77.9871 33.9733 78.3589 34.088 78.7397 34.0899C79.2543 34.0899 79.7477 33.8855 80.1115 33.5217C80.4753 33.1579 80.6797 32.6644 80.6797 32.1499V32.1499Z" fill="#045CB6"/>
<path d="M239.82 19.7698V22.6898H238.92C233.55 22.6898 228.19 22.6898 222.82 22.6898C220.5 22.6898 218.54 23.9598 218.23 26.0398C217.965 27.8602 217.965 29.7094 218.23 31.5298C218.55 33.5998 220.5 34.8698 222.76 34.8698H239.76V37.7698C239.52 37.7698 239.26 37.7698 239.01 37.7698C233.69 37.7698 228.37 37.7698 223.01 37.7698C221.878 37.8312 220.747 37.6446 219.695 37.2232C218.643 36.8017 217.696 36.1555 216.92 35.3298C215.638 34.0371 214.919 32.2902 214.92 30.4698C214.851 28.9896 214.878 27.5066 215 26.0298C215.274 24.2853 216.162 22.696 217.504 21.5483C218.846 20.4006 220.554 19.7699 222.32 19.7698C228 19.7098 233.69 19.7698 239.37 19.7698C239.52 19.7571 239.67 19.7571 239.82 19.7698Z" fill="#045CB6"/>
<path d="M97.2797 19.77H100.28V20.67C100.28 24.19 100.28 27.67 100.28 31.23C100.28 33.64 101.55 34.9 103.97 34.9H117.97C120.37 34.9 121.66 33.63 121.67 31.23C121.67 27.71 121.67 24.23 121.67 20.66V19.77H124.67V31.27C124.723 32.1428 124.591 33.017 124.284 33.8357C123.977 34.6544 123.501 35.3992 122.887 36.0218C122.272 36.6443 121.534 37.1306 120.72 37.4491C119.905 37.7675 119.033 37.9109 118.16 37.87C114.72 37.87 111.26 37.87 107.82 37.87C106.09 37.87 104.36 37.87 102.65 37.78C101.212 37.6086 99.8827 36.9324 98.8974 35.8721C97.9122 34.8117 97.3353 33.436 97.2697 31.99C97.2697 28.04 97.2697 24.07 97.2697 20.11C97.2297 19.99 97.2597 19.9 97.2797 19.77Z" fill="#045CB6"/>
<path d="M129.81 11.6499H132.81V31.2299C132.755 31.736 132.816 32.2478 132.986 32.7276C133.156 33.2073 133.432 33.6427 133.793 34.0017C134.153 34.3606 134.59 34.634 135.071 34.8016C135.552 34.9692 136.064 35.0267 136.57 34.9699H139.35V37.9699C137.741 37.9708 136.134 37.8639 134.54 37.6499C133.276 37.3585 132.138 36.6721 131.291 35.6903C130.444 34.7086 129.932 33.4824 129.83 32.1899C129.83 31.8799 129.83 31.5599 129.83 31.2499V11.6499H129.81Z" fill="#045CB6"/>
<path d="M215.25 11.31H220.17V5.54004H226.05V11.36H220.31V16.69H215.12C215.12 16.39 215.12 16.08 215.12 15.78C215.12 14.55 215.12 13.31 215.12 12.07C215.139 11.8098 215.183 11.552 215.25 11.3V11.31Z" fill="#045CB6"/>
<path d="M209.87 37.8799H206.93V19.8799H209.87V37.8799Z" fill="#045CB6"/>
<path d="M215.25 11.2999H209.89V6.12988H215.12C215.12 7.58988 215.12 9.03988 215.12 10.4899C215.138 10.7665 215.182 11.041 215.25 11.3099V11.2999Z" fill="#045CB6"/>
<path d="M209.89 11.3198V14.6898H206.72V11.3398H209.91L209.89 11.3198Z" fill="#045CB6"/>
<path d="M78.0498 54.2798H79.4898V58.0998H78.0498V54.2798Z" fill="#045CB6"/>
<path d="M78.04 4.6499H79.48V8.4399H78.04V4.6499Z" fill="#045CB6"/>
<path d="M54.3096 50.7701L56.0396 49.3101L56.9696 50.4301L55.2496 51.8801L54.3096 50.7701Z" fill="#045CB6"/>
<path d="M52.02 47.5401L51.29 46.2801L53.29 45.1401L54.01 46.3901L52.02 47.5401Z" fill="#045CB6"/>
<path d="M49.6101 42.6498L49.1201 41.2898L51.2601 40.5098L51.7401 41.8598L49.6101 42.6498Z" fill="#045CB6"/>
<path d="M63.7197 58.71L62.4697 57.97L63.5897 56.04L64.8397 56.77L63.7197 58.71Z" fill="#045CB6"/>
<path d="M60.6401 53.96L59.1801 55.68L58.1201 54.77L59.5701 53.04L60.6401 53.96Z" fill="#045CB6"/>
<path d="M69.4696 58.8201L68.7196 60.8801L67.3496 60.4101L68.1096 58.3101L69.4696 58.8201Z" fill="#045CB6"/>
<path d="M74.0098 62.17L72.5898 61.93L72.9598 59.77L74.3898 60.01L74.0098 62.17Z" fill="#045CB6"/>
<path d="M53.9 16.0998L53.19 17.3698L51.29 16.2698L52.02 15.0098L53.9 16.0998Z" fill="#045CB6"/>
<path d="M54.3096 11.7702L55.2396 10.6602L56.9096 12.0502L55.9796 13.1602L54.3096 11.7702Z" fill="#045CB6"/>
<path d="M83.4501 62.1701L83.1201 60.0701L84.5401 59.8301L84.9201 61.9301L83.4501 62.1701Z" fill="#045CB6"/>
<path d="M59.1701 6.83008L60.5701 8.50008L59.4601 9.43008L58.1201 7.83008L59.1701 6.83008Z" fill="#045CB6"/>
<path d="M90.1203 60.3999L88.7803 60.8799L88.0303 58.8799L89.3903 58.3599L90.1203 60.3999Z" fill="#045CB6"/>
<path d="M63.5303 6.39008L62.5303 4.57008L63.7703 3.83008L64.8303 5.66008L63.5303 6.39008Z" fill="#045CB6"/>
<path d="M68.7197 1.6499L69.4296 3.5899L68.1197 4.0999L67.3896 2.0999L68.7197 1.6499Z" fill="#045CB6"/>
<path d="M92.6797 56.8899L93.9397 56.1699L94.9397 57.9699L93.6997 58.7099L92.6797 56.8899Z" fill="#045CB6"/>
<path d="M72.5801 0.610117L74.0101 0.370117L74.3701 2.37012L72.9501 2.63012L72.5801 0.610117Z" fill="#045CB6"/>
<path d="M100.64 50.6098L101.58 49.5098L103.12 50.7698L102.19 51.8798L100.64 50.6098Z" fill="#045CB6"/>
<path d="M96.9297 54.0999L98.0497 53.1699L99.3797 54.7699L98.2797 55.7699L96.9297 54.0999Z" fill="#045CB6"/>
<path d="M108.06 31.9601V30.6001H109.96V31.9601H108.06Z" fill="#045CB6"/>
<path d="M83.4401 0.379883L84.8701 0.599883L84.5201 2.59988L83.1201 2.32988L83.4401 0.379883Z" fill="#045CB6"/>
<path d="M90.1203 2.12992L89.4403 3.97992L88.0703 3.51992L88.7403 1.66992L90.1203 2.12992Z" fill="#045CB6"/>
<path d="M92.7402 5.53984L93.7402 3.83984L94.9902 4.55984L93.9902 6.25984L92.7402 5.53984Z" fill="#045CB6"/>
<path d="M101.66 12.9899L100.73 11.8899L102.2 10.6099L103.14 11.7099L101.66 12.9899Z" fill="#045CB6"/>
<path d="M109.64 26.5501L107.75 26.8901L107.47 25.4701L109.39 25.1401L109.64 26.5501Z" fill="#045CB6"/>
<path d="M104.49 17.24L103.77 16L105.44 15L106.17 16.27L104.49 17.24Z" fill="#045CB6"/>
<path d="M107.84 19.8999L108.36 21.2499L106.55 21.9199L106.03 20.5699L107.84 19.8999Z" fill="#045CB6"/>
<path d="M99.38 7.76986L98.12 9.27986L97 8.34986L98.26 6.85986L99.38 7.76986Z" fill="#045CB6"/>
<path d="M100.78 46.3101H97.5098V40.3101H100.78V41.3701H98.6798V42.7501H100.78V43.7501H98.6798V45.2401H100.78V46.3101Z" fill="#878787"/>
<path d="M103.17 44.85L102.17 46.31H101.01L102.56 43.94L101.24 41.77H102.43L103.22 43.07L104.03 41.77H105.27L103.81 43.94L105.28 46.34H104.12L103.17 44.85Z" fill="#878787"/>
<path d="M106.58 45.94V47.77H105.58V41.77H106.58V42.15C106.782 41.9909 107.008 41.8659 107.25 41.78C107.49 41.6916 107.744 41.6475 108 41.65C108.279 41.6502 108.557 41.6975 108.82 41.79C109.071 41.8769 109.302 42.0128 109.5 42.19C109.771 42.4208 109.99 42.7073 110.14 43.03C110.278 43.3456 110.353 43.6854 110.36 44.03C110.363 44.3736 110.295 44.7141 110.16 45.03C110.027 45.3327 109.833 45.6049 109.59 45.83C109.164 46.2341 108.597 46.4565 108.01 46.45C107.745 46.4539 107.482 46.4133 107.23 46.33C106.991 46.2426 106.77 46.1102 106.58 45.94ZM106.63 44C106.621 44.183 106.649 44.3659 106.713 44.5378C106.777 44.7096 106.874 44.8668 107 45C107.122 45.1258 107.268 45.2254 107.43 45.2924C107.591 45.3595 107.765 45.3927 107.94 45.39C108.115 45.3931 108.288 45.3591 108.448 45.2901C108.608 45.2212 108.752 45.1188 108.87 44.99C109.121 44.7355 109.262 44.3924 109.262 44.035C109.262 43.6776 109.121 43.3345 108.87 43.08C108.737 42.9528 108.58 42.8536 108.409 42.7884C108.237 42.7231 108.054 42.693 107.87 42.7C107.703 42.6975 107.538 42.73 107.385 42.7954C107.231 42.8609 107.094 42.9579 106.98 43.08C106.747 43.3289 106.622 43.6593 106.63 44V44Z" fill="#878787"/>
<path d="M114.61 46.3101V45.7701C114.485 45.9876 114.297 46.1619 114.07 46.2701C113.789 46.388 113.485 46.4427 113.18 46.4301C112.866 46.4377 112.554 46.3803 112.263 46.2616C111.972 46.1429 111.709 45.9653 111.49 45.7401C111.267 45.514 111.092 45.245 110.975 44.9495C110.858 44.6539 110.802 44.3378 110.81 44.0201C110.811 43.7089 110.868 43.4004 110.98 43.1101C111.095 42.8282 111.261 42.5704 111.47 42.3501C111.678 42.1205 111.934 41.9396 112.22 41.8201C112.518 41.6962 112.838 41.635 113.16 41.6401C113.453 41.6339 113.743 41.692 114.01 41.8101C114.248 41.9168 114.45 42.0906 114.59 42.3101V41.7701H115.59V46.3401L114.61 46.3101ZM111.9 43.9901C111.892 44.1739 111.921 44.3576 111.986 44.5297C112.052 44.7017 112.152 44.8584 112.28 44.9901C112.402 45.1159 112.548 45.2154 112.71 45.2825C112.872 45.3496 113.045 45.3828 113.22 45.3801C113.386 45.38 113.55 45.3452 113.702 45.278C113.853 45.2109 113.989 45.1128 114.1 44.9901C114.223 44.8726 114.321 44.7314 114.388 44.575C114.456 44.4186 114.49 44.2503 114.49 44.0801C114.498 43.8955 114.467 43.7114 114.4 43.5393C114.333 43.3672 114.231 43.2109 114.1 43.0801C113.988 42.9525 113.849 42.8507 113.694 42.7817C113.539 42.7127 113.37 42.678 113.2 42.6801C113.029 42.6764 112.859 42.7083 112.701 42.7737C112.542 42.8391 112.399 42.9366 112.28 43.0601C112.157 43.1811 112.06 43.326 111.995 43.4859C111.929 43.6458 111.897 43.8174 111.9 43.9901V43.9901Z" fill="#878787"/>
<path d="M117.61 41.77V42.29C117.733 42.0758 117.908 41.8968 118.12 41.77C118.335 41.6665 118.571 41.6152 118.81 41.62C119.108 41.6107 119.404 41.676 119.67 41.81C119.922 41.9353 120.134 42.1295 120.28 42.37C120.391 42.5409 120.469 42.7308 120.51 42.93C120.567 43.2366 120.59 43.5484 120.58 43.86V46.28H119.52V44.28C119.555 43.8482 119.479 43.4146 119.3 43.02C119.221 42.9023 119.111 42.8084 118.982 42.7485C118.854 42.6886 118.711 42.6649 118.57 42.68C118.422 42.6669 118.273 42.6943 118.139 42.7595C118.005 42.8247 117.891 42.9251 117.81 43.05C117.622 43.4526 117.543 43.8973 117.58 44.34V46.34H116.58V41.77H117.61Z" fill="#878787"/>
<path d="M125.12 42.1098V40.2598H126.12V46.2598H125.12V45.8798C124.921 46.0401 124.699 46.1683 124.46 46.2598C124.216 46.3423 123.959 46.3829 123.7 46.3798C123.424 46.3796 123.15 46.3323 122.89 46.2398C122.639 46.1529 122.408 46.0169 122.21 45.8398C121.936 45.6098 121.717 45.3218 121.569 44.9967C121.42 44.6715 121.345 44.3173 121.35 43.9598C121.342 43.6157 121.41 43.274 121.55 42.9598C121.686 42.653 121.884 42.3774 122.13 42.1498C122.447 41.8724 122.83 41.6823 123.242 41.5981C123.654 41.514 124.081 41.5387 124.48 41.6698C124.723 41.7675 124.942 41.9178 125.12 42.1098V42.1098ZM125.12 44.0398C125.128 43.8569 125.099 43.6743 125.036 43.5026C124.972 43.3309 124.875 43.1736 124.75 43.0398C124.629 42.9143 124.484 42.8144 124.323 42.7463C124.163 42.6781 123.99 42.643 123.815 42.643C123.641 42.643 123.468 42.6781 123.307 42.7463C123.147 42.8144 123.002 42.9143 122.88 43.0398C122.629 43.2943 122.489 43.6373 122.489 43.9948C122.489 44.3522 122.629 44.6953 122.88 44.9498C123.013 45.0769 123.17 45.1761 123.342 45.2414C123.514 45.3067 123.697 45.3367 123.88 45.3298C124.047 45.3311 124.212 45.298 124.365 45.2326C124.518 45.1672 124.656 45.0709 124.77 44.9498C124.965 44.6882 125.057 44.3646 125.03 44.0398H125.12Z" fill="#878787"/>
<path d="M130.69 46.31H129.5V40.31H131.01C131.311 40.3043 131.612 40.3244 131.91 40.37C132.097 40.4036 132.277 40.4714 132.44 40.57C132.689 40.7409 132.892 40.9712 133.03 41.24C133.171 41.5157 133.247 41.8203 133.25 42.13C133.259 42.3899 133.212 42.6487 133.112 42.8886C133.012 43.1286 132.861 43.344 132.67 43.52C132.241 43.8818 131.691 44.0676 131.13 44.04H130.69V46.31ZM130.69 42.96H131C131.27 42.9768 131.537 42.9029 131.76 42.75C131.847 42.6746 131.915 42.5805 131.96 42.4749C132.005 42.3692 132.026 42.2547 132.02 42.14C132.031 42.0257 132.014 41.9105 131.97 41.8043C131.927 41.698 131.858 41.6039 131.77 41.53C131.542 41.3727 131.266 41.2986 130.99 41.32H130.69V42.96Z" fill="#878787"/>
<path d="M135.83 42.6699C135.511 42.6661 135.201 42.78 134.96 42.9899C134.766 43.2852 134.682 43.6388 134.72 43.9899V46.3199H133.66V41.7699H134.66V42.2999C134.798 42.1097 134.98 41.9554 135.19 41.8499C135.391 41.7475 135.614 41.696 135.84 41.6999L135.83 42.6699Z" fill="#878787"/>
<path d="M135.98 44.0001C135.98 43.6889 136.038 43.3804 136.15 43.0901C136.267 42.7998 136.444 42.5374 136.67 42.3201C136.89 42.0961 137.152 41.9162 137.44 41.7901C137.723 41.6632 138.03 41.5984 138.34 41.6001C138.651 41.5987 138.96 41.6564 139.25 41.7701C139.536 41.8813 139.798 42.0478 140.02 42.2601C140.255 42.4836 140.442 42.7524 140.57 43.0501C140.7 43.343 140.768 43.6596 140.77 43.9801C140.774 44.3056 140.713 44.6286 140.59 44.9301C140.477 45.2236 140.303 45.4895 140.08 45.7101C139.866 45.9445 139.603 46.1289 139.31 46.2501C139.008 46.3721 138.685 46.4333 138.36 46.4301C138.038 46.4333 137.718 46.3721 137.42 46.2501C137.131 46.1166 136.87 45.9301 136.65 45.7001C136.434 45.4712 136.264 45.203 136.15 44.9101C136.033 44.6211 135.975 44.3118 135.98 44.0001V44.0001ZM137.07 44.0001C137.053 44.3661 137.178 44.7244 137.42 45.0001C137.543 45.1256 137.691 45.2235 137.855 45.2873C138.019 45.3511 138.194 45.3793 138.37 45.3701C138.545 45.3799 138.72 45.3509 138.882 45.2853C139.045 45.2196 139.191 45.1188 139.31 44.9901C139.548 44.7129 139.673 44.3557 139.66 43.9901C139.673 43.8067 139.647 43.6226 139.583 43.4501C139.519 43.2776 139.419 43.1208 139.29 42.9901C139.171 42.8675 139.027 42.7712 138.869 42.7074C138.711 42.6437 138.54 42.614 138.37 42.6201C138.196 42.6125 138.024 42.6425 137.863 42.7081C137.703 42.7737 137.558 42.8733 137.44 43.0001C137.321 43.1342 137.231 43.2914 137.176 43.4617C137.121 43.6321 137.102 43.812 137.12 43.9901L137.07 44.0001Z" fill="#878787"/>
<path d="M144.98 42.1098V40.2598H145.98V46.2598H144.98V45.8798C144.781 46.0401 144.558 46.1683 144.32 46.2598C144.075 46.3416 143.818 46.3822 143.56 46.3798C143.284 46.3796 143.01 46.3323 142.75 46.2398C142.497 46.15 142.263 46.0144 142.06 45.8398C141.794 45.6059 141.58 45.32 141.43 44.9998C141.287 44.6856 141.212 44.3448 141.21 43.9998C141.201 43.6557 141.269 43.314 141.41 42.9998C141.546 42.693 141.743 42.4174 141.99 42.1898C142.306 41.9124 142.689 41.7223 143.101 41.6381C143.513 41.554 143.94 41.5787 144.34 41.7098C144.579 41.7958 144.797 41.9322 144.98 42.1098V42.1098ZM144.98 44.0398C144.987 43.8569 144.959 43.6743 144.895 43.5026C144.832 43.3309 144.735 43.1736 144.61 43.0398C144.488 42.9143 144.343 42.8144 144.183 42.7463C144.022 42.6781 143.849 42.643 143.675 42.643C143.5 42.643 143.328 42.6781 143.167 42.7463C143.006 42.8144 142.861 42.9143 142.74 43.0398C142.489 43.2943 142.348 43.6373 142.348 43.9948C142.348 44.3522 142.489 44.6953 142.74 44.9498C142.872 45.0769 143.029 45.1761 143.201 45.2414C143.373 45.3067 143.556 45.3367 143.74 45.3298C143.906 45.3311 144.071 45.298 144.224 45.2326C144.378 45.1672 144.515 45.0709 144.63 44.9498C144.842 44.6952 144.953 44.371 144.94 44.0398H144.98Z" fill="#878787"/>
<path d="M149.88 46.31V45.77C149.746 45.9691 149.564 46.1307 149.35 46.2392C149.137 46.3478 148.899 46.3997 148.66 46.39C148.414 46.4043 148.168 46.3642 147.94 46.2726C147.712 46.181 147.507 46.0401 147.34 45.86C147.005 45.427 146.841 44.886 146.88 44.34V41.77H147.95V43.77C147.914 44.2042 147.987 44.6403 148.16 45.04C148.253 45.1464 148.369 45.2316 148.498 45.29C148.627 45.3484 148.768 45.3786 148.91 45.3786C149.051 45.3786 149.192 45.3484 149.321 45.29C149.45 45.2316 149.566 45.1464 149.66 45.04C149.841 44.632 149.92 44.1856 149.89 43.74V41.77H150.89V46.34L149.88 46.31Z" fill="#878787"/>
<path d="M155.12 43.3599C155.006 43.1435 154.837 42.9607 154.63 42.8299C154.419 42.705 154.176 42.6426 153.93 42.6499C153.761 42.6459 153.593 42.6787 153.438 42.7461C153.282 42.8134 153.143 42.9137 153.03 43.0399C152.78 43.3114 152.647 43.6709 152.66 44.0399C152.652 44.2238 152.681 44.4075 152.746 44.5795C152.812 44.7516 152.912 44.9083 153.04 45.0399C153.16 45.1647 153.305 45.2629 153.465 45.3283C153.625 45.3938 153.797 45.425 153.97 45.4199C154.223 45.4295 154.472 45.3671 154.69 45.2399C154.89 45.1062 155.038 44.9088 155.11 44.6799H156.25C156.136 45.1982 155.851 45.6631 155.44 45.9999C155.024 46.3248 154.508 46.4946 153.98 46.4799C153.658 46.4831 153.339 46.4219 153.04 46.2999C152.745 46.1766 152.48 45.9926 152.26 45.7599C152.041 45.5395 151.868 45.2778 151.75 44.9899C151.523 44.408 151.523 43.7619 151.75 43.1799C151.869 42.9006 152.035 42.6436 152.24 42.4199C152.469 42.1776 152.745 41.9838 153.05 41.8499C153.365 41.7121 153.707 41.6439 154.05 41.6499C154.578 41.6386 155.093 41.808 155.51 42.1299C155.92 42.4507 156.206 42.9028 156.32 43.4099L155.12 43.3599Z" fill="#878787"/>
<path d="M157.35 46.3098V42.6898H156.65V41.7698H157.35V40.2598H158.41V41.7698H159.11V42.7698H158.41V46.3898L157.35 46.3098Z" fill="#878787"/>
<path d="M160.67 41.27H159.67V40.27H160.67V41.27ZM159.67 46.27V41.77H160.67V46.34L159.67 46.27Z" fill="#878787"/>
<path d="M163.6 46.31H162.76L161.03 41.77H162.12L163.18 44.77L164.28 41.77H165.38L163.6 46.31Z" fill="#878787"/>
<path d="M166.79 41.27H165.79V40.27H166.79V41.27ZM165.79 46.27V41.77H166.79V46.34L165.79 46.27Z" fill="#878787"/>
<path d="M168.06 46.3098V42.6898H167.36V41.7698H168.06V40.2598H169.12V41.7698H169.83V42.7698H169.12V46.3898L168.06 46.3098Z" fill="#878787"/>
<path d="M169.77 41.77H170.89L172.01 44.96L173.23 41.77H174.34L171.88 47.77H170.78L171.42 46.16L169.77 41.77Z" fill="#878787"/>
</g>
<defs>
<clipPath id="clip0">
<rect width="239.83" height="62.54" fill="white"/>
</clipPath>
</defs>
</svg>
