<svg xmlns="http://www.w3.org/2000/svg" id="Layer_1" width="644.6" height="461.5"><style id="style2">.st0{fill:#007670;}</style><g id="g16" fill="#fff"><g id="g6"><path id="path4" fill="#007670" d="M322.3 341.3c-1.8 0-3.6-.6-5-1.5L4.8 152.5c-3.2-2-5-5.6-4.8-9.3.3-3.7 2.7-7 6.2-8.4L332.5.8c2.5-1 5.3-1 7.8 0l298.2 129.6c3.3 1.5 5.6 4.6 6 8.2.3 3.6-1.3 7.2-4.4 9.2l-58 39.6c-4 3-10 2-14-2.7-3-4.6-1-10.8 3-14l44-29.4L336 21 32 145.6l290 174L456.5 233c4.7-3 11-1.5 14 3 3 4.7 1.5 11-3 14l-140 89.6c-1.7 1-3.5 1.6-5.4 1.6z" class="st0"/></g><g id="g10"><path id="path8" fill="#007670" d="M563.5 389.8c-1.2 0-2.3-.3-3.3-.6L527 378l-11 9.4c-3 2.6-7.3 3-11 1.4-3.5-1.8-5.7-5.4-5.6-9.4l3-128c0-5.3 4.2-9.6 10-9.6s10 4.7 9.6 10.3l-2.5 106c2.6-1 5.5-1 8 0l23 8-23-145-186-71c-5-2-7.8-8-5.8-13s7.7-8 13-6l191.8 73c3.4 1.7 5.8 4.6 6.3 8l26.5 167c.5 4-.8 7-3.4 9.7-2 1.5-5 2.4-7 2.4z" class="st0"/></g><g id="g14"><path id="path12" fill="#007670" d="M322.3 461.4c-2 0-4-.5-6-2l-166-120c-2.7-2-4.2-5-4.2-8v-99.8c0-5.5 5-10 10-10 6 0 10 4.5 10 10V326l157 113.4L468 346c4.7-3 11-1.3 14 3 3 5 1.6 11-3 14l-151 97c-1.8 1-3.6 1.6-5.5 1.6z" class="st0"/></g></g></svg>