<svg xmlns="http://www.w3.org/2000/svg" id="Layer_1" width="183.6" height="59.1"><style id="style2">.st0{opacity:0.71;} .st1{fill:#0e8fab;} .st2{opacity:0.54;fill:##0e8fab;}</style><g id="g58"><g id="g12"><g id="g6" class="st0" opacity=".7"><path id="path4" fill="#0e8fab" d="M43.7 28l-.7-.4s-4.8-2.4-5.2-3c-.4-.8-.5-1.5-.5-1.5 0-.3-.2-.6-.4-1-.7-.5-1.7-.5-2.3 0-.3.4-.5.6-.5 1v.4c-.4 2.3-2.6 4-3 4.2-.5.3-1.5.3-1.8.3-.6 0-1 0-1.4.4-.7.7-.7 2 0 2.6.7.7 2 .7 2.6 0 .3-.3.4-.6.5-1 .2-.5.3-1.4.6-1.8.3-.5 1.8-2.8 4-3.3.3 0 1 0 1.4.4.5.3 2 3 2.6 4.4C39 31 38 33 37 33.8c-1 .6-1.5.8-1.6 1-.3 0-.6 0-.8.3-.3.4-.4.7-.4 1l-.8 1.4c-.5 1-2.6 2.2-4 3-1.3-.5-4-1.8-4.4-2.7l-.4-1.4c0-.4 0-.8-.5-1.2-.2-.2-.6-.4-1-.4s-.8-.2-1.5-.4c-1-.4-2.2-3-2.8-4.3.6-1.4 2-4 3-4.5.5-.3 1-.3 1.2-.4h.2c.4 0 .8 0 1-.4.4-.3.6-.7.6-1l.5-1.4c.5-1 5-3 5-3l.7-.6c1-1 1-2.3 0-3.2-1-1-2.3-1-3.2 0l-.5.7s-2 4.7-3 5.2l-1.2.5c-.4 0-1 0-1.3.5-.4.3-.5.7-.5 1.2v.2c0 .2 0 .5-.3 1-.5 1-4 2.7-5 3-.2.2-.6.3-.8.6-.8.8-.8 2 0 2.7l.7.3s4.5 2 5 3l.4 1.7c0 .4.2.7.4 1 .3.3.7.5 1.2.5l1.4.4c1 .4 3 4.6 3 5l.6.6c.8.8 2 .8 2.7 0 .2-.2.4-.5.5-1 .8-1.3 2.4-3.8 3.4-4.4l1.6-1c.3 0 .5 0 .7-.3 0-.3.3-.6.3-1l1-1.4c.6-1 3.6-2.6 4.6-3l.3-.3c.2 0 .3-.2.5-.3.7-.6.7-2 0-3z" class="st1"/></g><g id="g10"><path id="path8" fill="#0e8fab" d="M58 27.2c-.6-.5-1.2-.8-1.8-1-2.5-1.4-5-3-7-4.8-1.2-1-2-1.8-2.7-3-.6-1.3-1.2-2.7-2.2-3.6-1.2-1-3-1.4-4.3-2.4-1-.7-2-1.8-2.6-3-1-1.5-2-3.2-2.8-5-.6-1.2-1-2.5-2.2-3.4-1.4-1.2-3.6-1.3-5-.3s-2 2.4-2.8 3.8C23.6 6.7 22.3 9 21 11c-.5 1-1 1.8-2 2.3-1 .7-2.5.5-3.7 1.2-1 .5-1.5 1.6-1.5 2.6 0 1.2.6 2.2 1.5 2.7 1 .5 2 .6 3 .8 2 .5 3.8 2 5.3 3.6 1 1 1.7 2 2 3 .5 1.4.2 2.8.7 4 .5 1.5 2 2.5 3.5 2.5s3-1.2 3.3-2.6c.5-1.5 0-3.2-1.4-4-1.2-1-2.6-1-4-1.3-2-.7-3.8-2.4-5.3-4.2-1.3-1.6-2.6-3.6-2-5.6.4-1.5 1.7-2.5 3-3.2L28 10l1.4-.6c1.3-.2 2.6.8 3.7 1.4 1.4.7 2.6 1.5 3.7 2.6 1.6 1.6 2 4 3.5 5.6 1 1 2.2 1.2 3.3 2 1 .5 2 1.3 3 2.2 1.8 1.8 3 4 4.3 6.2l.2.4v.5l-2.7 5c-.4.6-1.8 3.2-2.8 3.2l-2 .7c-.7.2-1.5.2-2.2.5-.6.3-1.2.8-1.4 1.4-.3.6-.4 1.2-.5 1.7-.5 2.8-1.7 4-4 5.5-1.6 1-3.2 1.8-5 2.6l-.4.2s-.3 0-.4-.2c-2-1-5-1.8-6.4-3.5-1-.8-2-1.8-2.3-3-.6-1.5 0-3-1.4-4.2-.6-.5-1.5-1-2.3-1-.3 0-1-.2-2.6-1-2.3-.8-6-9.7-6-10l-1-1.4C5.8 25 3 25 1.2 26.6-.4 28.3-.4 31 1.3 33l1.5 1s9.2 3.6 10 6l1 2.2c0 1 .2 2 1 2.7.5.4 1.2.8 2 .8h1.7c2.6.5 3.8 2.7 5 4.8 1 1.6 2.4 3.7 2.8 5.5.2.8.5 1.4 1 2 1.5 1.5 4 1.5 5.4 0l1-1.4c.6-1.6 1.4-3.2 2.2-4.7 1.2-2.5 2.5-5.3 5.3-6 1-.3 2.4-.3 3.4-1s1.2-2 1.4-3.2c.6-3 3-4.3 5.4-5.7 1.7-1 3.6-1.8 5.4-2.6.5-.2 1-.5 1.4-1 1.2-1.3 1.2-3.8-.3-5.2z" class="st1"/></g></g><g id="g20" fill="#0e8fab"><path id="path14" d="M91.6 37c4 0 6-2 6-6 0-2-.4-3.5-1-4.3-1.2-1.4-1.7-2.3-1.7-2.6 0-1 1.7-1.6 5.2-1.6 2.6 0 4.7.2 6.2.5 1 0 1.6.7 1.6 1.5 0 .5-.2 1-.7 1.8-.5.7-.7 1.3-.8 1.8l-.4 3.7c0 2-.2 3-.2 3-.2 1.8-.7 3-1.4 3.6-.7.6-2 1.2-3.5 1.7-3.6 1-6.8 1.6-9.8 1.6h-1c-2.7 0-5.3-.5-7.8-1.5-4.7-2-8-5.2-9.8-10-1-2.3-1.4-5-1.4-7.7V21c0-2.5.5-5 1.6-7.7C75 8 78.5 4.6 83.4 2.7c2.3-1 4.8-1.3 7.7-1.3 1 0 2 0 3.3.3C95.5 2 97 2 99 2c1.8 0 3.2.4 4.4 1.2 1 .8 1.7 2.3 1.7 4.4 0 3-.5 4.3-1.6 4.3-.5 0-1.8-.8-3.7-2.3-2-1.5-3.5-2.4-4.5-3-1-.4-2.5-.6-4.2-.6-1.7 0-3.3.5-4.7 1.4C82 10 80 14.4 80 21.2c0 4.7 1.2 8.6 3.5 11.5 2 2.8 4.8 4.3 8 4.3z" class="st1"/><path id="path16" d="M128.2 23c0-.7.5-1.2 1.5-1.6 1.8-.7 3.5-1 5.2-1 1.6 0 2.4.4 2.4 1.2 0 .3-.2.7-.7 1-.5.6-1.2 1.6-2 3-1 1.6-1.5 2.8-2 3.7-.3 1-.5 2-.5 3s.4 2 1.2 3c.8.8 1.8 1.6 3 2.2 1.3.6 2 1 2 1.5 0 .2-.3.3-.6.5-1.7 1-3.6 1.3-5.8 1.3-.7 0-2-.2-3.3-.6l-3-.6c-.7 0-2 .3-4 1-2.2.5-4 .8-6 .8-3.4 0-6.2-1-8.4-2.8-1-1-2-2-2.4-3.3-.6-1.2-1-2.4-1-3.4v-1c0-2.6 1.3-5 3.7-7.3 2-1.8 3-3 3-3.5s-.4-1.6-1-3.3c-.8-1.8-1-3.3-1-4.5 0-3.8 1.7-6.5 5.3-8.2 1.2-.6 2.6-.8 4-.8 2.7 0 4.7.7 6 2 1.4 1.5 2 3.4 2 5.7 0 1.2-.4 3-1.4 5-1 2-1.5 3.6-1.5 5s.5 2.6 1.2 3.7c.7 1 1.5 1.6 2.4 1.6.4 0 .8-.2 1.2-.7.4-.5.6-1.3.6-2.3l-.2-.8zM110.5 30v.8c0 1.7.6 3.3 1.8 4.6 1.2 1.3 2.7 2 4.4 2H118.8c1 0 1.7-.4 2.5-1s1.2-1 1.2-1.2c0-.2-.6-1-1.8-2.3-1.2-1.2-2.6-3-4.3-5-1.7-2.3-2.6-3.4-3-3.4-.6 0-1.3.8-2.2 2.4-.3 1-.5 2-.5 3.2zm4.7-19.5v1c0 1 .6 2.8 1.8 5 .3.7.6 1 1 1 .6 0 1.6-1 3-3 .6-1 1-2 1-3v-1c0-.8-.4-1.6-1-2.6-.6-.8-1.3-1.3-2-1.3h-.8c-.6 0-1.3.3-2 1-.6.7-1 1.7-1 3z" class="st2" opacity=".5"/><path id="path18" d="M176.5 2.4c3 0 4.7.2 5.4.6l.7.7c0 .7-.4 1.5-1 2.4-1 1-1.3 1.6-1.4 2-.4 1-.7 2.5-.7 4.5v5l.4 5V30c0 3 .2 4.7.5 5.4.3.7.8 1.4 1.5 2l1.6 1.4c0 1-1 1.6-3.4 1.6-3.2 0-5.7-.2-7.5-.6-1.3-.3-2-1-2-1.8l.2-.8c.6-2.2 1-4 1-5l-.5-6.3c-.3-3.2-.4-6-.4-8.4 0-2.4 0-3.7-.2-3.7-.5 0-2 3-4.3 9.4-2.4 6.3-4 10.4-5 12-1.2 2.7-2.5 4-3.8 4-1.3 0-2.3-.8-3-2.4l-.8-1.6c-.3-.5-1-2-2-4.8l-2.5-6.4c-2.7-6.8-4.3-10.2-5-10.2-.5 0-.8 2.6-.8 7.8V28l.3 3v3l.2 1.4v1c.2.7.2 1.5.2 2.4l-.5.6c-1 .6-2.2 1-3.7 1-3.5 0-5.3-.5-5.3-1.4 0-.4.4-1 1-2 .8-1 1.3-2 1.6-3 .3-1 .4-3 .4-6v-1.6l.2-1.7.4-10.6c0-1.7 0-3-.4-4-.2-1-.8-2.4-1.6-3.7-.8-1.4-1.3-2.4-1.3-3l.6-.7c.7-.6 1.5-1 2.4-1h1.5c1.8 0 3.5.5 5 1.2 1.7.7 3 1.7 3.8 3l.8 1.2 2 4.3c.7 1.7 1.6 4 3 7 1.2 2.7 2.3 5 3.2 6.4l.7 1c.5 0 2.3-3.4 5.5-10 3-6.8 5-10.5 5.7-11.2 1.8-1.3 4-2 6.8-2z" class="st1"/></g><g id="g56" fill="#0e8fab"><path id="path22" d="M79.6 53.5h-2.4V48h3c.4.2.6.3.7.5 0 .3.3.6.3 1s0 .7-.4 1h-.3l-.2.2c.3 0 .6.2.8.5.2.2.3.5.3 1 0 .3 0 .6-.4 1-.3 0-.8.3-1.6.3zm-1.2-3.3h1.4c.2-.2.2-.3.2-.6s0-.4-.2-.5h-1.4zm0 2.3H80l.3-.6c0-.4 0-.5-.3-.6h-1.6z" class="st1"/><path id="path24" d="M85 52c.2.4.5.5.8.5.3 0 .6 0 .8-.4.2-.2.3-.5.3-1v-3h1v3.2c0 .8 0 1.4-.6 1.8-.4.4-1 .6-1.7.6s-1.2-.2-1.7-.6c-.4-.4-.7-1-.7-1.8v-3h1.2v3l.5 1z" class="st1"/><path id="path26" d="M91.6 49l-.2.5c0 .2 0 .3.2.4l1 .2c.5 0 1 .3 1.2.6.3.3.4.6.4 1 0 .6-.2 1-.6 1.3-.4.4-1 .6-1.5.6-.8 0-1.5-.3-2.2-1l.7-1c.6.6 1 1 1.6 1 .3 0 .5 0 .6-.2l.2-.4c0-.2 0-.3-.2-.4l-.8-.3c-.6-.2-1-.3-1.4-.6-.3-.2-.4-.6-.4-1 0-.6.2-1 .6-1.3.4-.3.8-.4 1.4-.4.4 0 .7 0 1 .2.5 0 .8.3 1 .5l-.5 1c-.5-.5-1-.6-1.5-.6h-.4z" class="st1"/><path id="path28" d="M96.3 48h1.2v5.5h-1.2z" class="st1"/><path id="path30" d="M103.6 48h1.2v5.5h-1.2L101 50v3.5h-1.2V48h1l2.8 3.5z" class="st1"/><path id="path32" d="M111 48v1h-2.6v1.2h2.4v1h-2.4v1h2.8v1.2h-4V48h4z" class="st1"/><path id="path34" d="M114.5 49l-.2.5c0 .2 0 .3.2.4l1 .2c.5 0 1 .3 1.2.6.3.3.4.6.4 1 0 .6 0 1-.5 1.3-.4.4-1 .6-1.5.6-1 0-1.6-.3-2.3-1l.7-1c.6.6 1 1 1.6 1 .2 0 .4 0 .5-.2l.2-.4c0-.2 0-.3-.2-.4l-.8-.3c-.6-.2-1-.3-1.4-.6-.3-.2-.4-.6-.4-1 0-.6 0-1 .5-1.3.4-.3.8-.4 1.4-.4.3 0 .6 0 1 .2.4 0 .7.3 1 .5l-.6 1c-.5-.5-1-.6-1.5-.6h-.5z" class="st1"/><path id="path36" d="M120.4 49l-.2.5c0 .2 0 .3.2.4l1 .2c.5 0 1 .3 1.2.6.3.3.4.6.4 1 0 .6-.2 1-.6 1.3-.4.4-1 .6-1.5.6-1 0-1.7-.3-2.4-1l.7-1c.6.6 1 1 1.6 1 0 0 .3 0 .4-.2l.2-.4c0-.2 0-.3-.2-.4l-.8-.3c-.6-.2-1-.3-1.4-.6-.3-.2-.4-.6-.4-1 0-.6.2-1 .6-1.3.4-.3.8-.4 1.4-.4.4 0 .7 0 1 .2.5 0 .8.3 1 .5l-.5 1c-.5-.5-1-.6-1.5-.6h-.4z" class="st1"/><path id="path38" d="M129.3 49l-.2.5c0 .2.2.3.3.4l1 .2c.5 0 1 .3 1.2.6.3.3.4.6.4 1 0 .6-.3 1-.7 1.3-.4.4-1 .6-1.5.6-1 0-1.6-.3-2.3-1l.7-1c.6.6 1 1 1.6 1 .2 0 .4 0 .5-.2l.2-.4c0-.2 0-.3-.2-.4l-.8-.3c-.6-.2-1-.3-1.4-.6-.2-.2-.3-.6-.3-1 0-.6.2-1 .6-1.3.4-.3.8-.4 1.4-.4.4 0 .7 0 1 .2.5 0 .8.3 1 .5l-.5 1c-.5-.5-1-.6-1.5-.6h-.4z" class="st1"/><path id="path40" d="M138.6 52.7c-.6.5-1.2.8-2 .8s-1.5-.3-2-.8c-.6-.5-.8-1.2-.8-2s.3-1.5.8-2c.6-.5 1.2-.8 2-.8s1.5.2 2 .7c.6.5.8 1.2.8 2s-.3 1.5-.8 2zm-.4-2c0-.5-.2-1-.5-1.2-.3-.3-.7-.5-1.2-.5s-.8.2-1.2.5c-.3.3-.5.8-.5 1.2 0 .5.2 1 .5 1.2.3.2.7.4 1.2.4s.8-.2 1.2-.5c.3-.4.5-.8.5-1.3z" class="st1"/><path id="path42" d="M141.4 53.5V48h1.2v4.4h2.3v1z" class="st1"/><path id="path44" d="M148 52c.3.4.6.5 1 .5.2 0 .5 0 .7-.4.2-.2.3-.5.3-1v-3h1.2v3.2c0 .8-.2 1.4-.7 1.8-.4.4-1 .6-1.7.6s-1.2-.2-1.7-.6c-.3-.4-.6-1-.6-1.8v-3h1.2v3l.5 1z" class="st1"/><path id="path46" d="M155.8 49v4.5h-1.2V49H153v-1h4.4v1z" class="st1"/><path id="path48" d="M159 48h1.3v5.5H159z" class="st1"/><path id="path50" d="M167.2 52.7c-.6.5-1.2.8-2 .8s-1.5-.3-2-.8c-.6-.5-.8-1.2-.8-2s.3-1.5.8-2c.6-.5 1.2-.8 2-.8s1.5.2 2 .7c.6.5.8 1.2.8 2s-.2 1.5-.8 2zm-.4-2c0-.5-.2-1-.5-1.2-.3-.3-.7-.5-1.2-.5-.4 0-.7.2-1 .5-.4.3-.6.8-.6 1.2 0 .5.2 1 .5 1.2.2.2.6.4 1 .4.6 0 1-.2 1.3-.5.4-.4.5-.8.5-1.3z" class="st1"/><path id="path52" d="M174 48h1v5.5h-1l-2.7-3.4v3.5H170V48h1.2l2.7 3.5z" class="st1"/><path id="path54" d="M178.6 49l-.2.5c0 .2 0 .3.2.4l1 .2c.5 0 1 .3 1.2.6.3.3.4.6.4 1 0 .6-.2 1-.6 1.3-.4.4-1 .6-1.5.6-.8 0-1.5-.3-2.2-1l.7-1c.6.6 1 1 1.6 1 .3 0 .5 0 .6-.2l.2-.4c0-.2 0-.3-.2-.4l-.8-.3c-.6-.2-1-.3-1.4-.6-.3-.2-.4-.6-.4-1 0-.6.2-1 .6-1.3.4-.3.8-.4 1.4-.4.4 0 .7 0 1 .2.5 0 .8.3 1 .5l-.5 1c-.5-.5-1-.6-1.5-.6h-.4z" class="st1"/></g></g></svg>