<svg xmlns:svg="http://www.w3.org/2000/svg" xmlns="http://www.w3.org/2000/svg" version="1.1" width="1000" height="1000" viewBox="0 0 1000 1000" xml:space="preserve"><g transform="matrix(1.5065589,0,0,1.5065589,-227.14123,-303.77096)"><path d="m385.1 515.1c35.4-66.1 70.2-131.2 106.2-198.6 35.7 66.7 70.7 132 106.3 198.5-19.4 7.3-37.6 14.1-56.3 21.2-16.6-30.7-32.8-60.7-50-92.4-17.3 31.9-33.5 61.9-50 92.4-18.9-7.1-37.1-14-56.3-21.2zM363.5 565.5c19.3 7.3 37.2 14 56.3 21.2-12 27.8-23.7 54.7-35.4 81.6-4.6 10.4-6.9 24.7-14.9 30-8.1 5.3-22 1.8-33.4 1.9-13.8 0.1-27.5 0-43.3 0 23.9-45.4 47-89.5 70.8-134.7zM562.9 586.6c16.7-7.1 32.5-13.9 49.3-21.1 23.5 44.7 46.7 88.8 70.8 134.6-23.3 0-44.5 0.3-65.7-0.4-2.9-0.1-6.8-4.6-8.3-7.9-15.4-34.5-30.4-69.2-46.1-105.3z"/></g><path d="m504 16.5c-268.3 0-485.8 217.5-485.8 485.8 0 268.3 217.5 485.8 485.8 485.8 268.3 0 485.8-217.5 485.8-485.8 0-268.3-217.5-485.8-485.8-485.8zm0 914.8c-237 0-429.1-192.1-429.1-429.1 0-237 192.1-429.1 429.1-429.1 237 0 429.1 192.1 429.1 429.1 0 237-192.1 429.1-429.1 429.1z" fill="#020202"/></svg>