<svg fill="#444" xmlns="http://www.w3.org/2000/svg" width="971.6" height="971.6"><path d="M334.8 455.8c53.4-99.6 105.8-197.7 160-299.2l160.2 299c-29.2 11-56.7 21.2-84.8 32l-75.4-139.3-75.3 139.2c-28.5-10.7-56-21-84.8-32zm-32.5 76c29 11 56 21 84.8 31.8l-53 123c-7 15.6-10.3 37.2-22.4 45.2-12.2 8-33 2.7-50.3 2.8-20.7.2-41.3 0-65 0l106.5-203zm300.4 31.7l74.3-31.8 106.6 202.8c-35 0-67 .4-99-.6-4.3-.6-10.2-7-12.4-12-23.2-52-45.8-104.6-69.5-159z"/><path d="M485.8 0C217.5 0 0 217.5 0 485.8s217.5 485.8 485.8 485.8S971.6 754 971.6 485.8 754 0 485.8 0zm0 914.8c-237 0-429-192-429-429s192-429.2 429-429.2 429 192 429 429S723 915 486 915z"/></svg>